<svg width="2000px" height="931px"
 viewBox="0.00 0.00 851.34 395.87" xmlns="http://www.w3.org/2000/svg" xmlns:xlink="http://www.w3.org/1999/xlink">
<g id="graph0" class="graph" transform="scale(1.0 1.0) rotate(0) translate(4 391.87)">
<title>ContextMapGraph</title>
<polygon fill="white" stroke="transparent" points="-4,4 -4,-391.87 847.34,-391.87 847.34,4 -4,4"/>
<!-- GestionAlquileres -->
<g id="node1" class="node">
<title>GestionAlquileres</title>
<polygon fill="none" stroke="black" stroke-width="2" points="645.13,-218.03 640.46,-220.44 635.52,-222.77 630.33,-225 624.89,-227.13 619.24,-229.16 613.4,-231.06 607.38,-232.84 601.2,-234.48 594.89,-235.99 588.47,-237.35 581.94,-238.56 575.35,-239.61 568.69,-240.51 562,-241.24 555.29,-241.81 548.58,-242.21 541.88,-242.45 535.22,-242.52 528.6,-242.43 522.05,-242.18 515.57,-241.77 509.19,-241.21 502.92,-240.49 496.76,-239.62 490.73,-238.62 484.84,-237.48 479.11,-236.21 473.54,-234.82 468.14,-233.32 462.92,-231.71 457.89,-230 453.07,-228.19 448.44,-226.31 444.03,-224.35 439.84,-222.33 435.88,-220.25 432.16,-218.12 428.67,-215.95 425.44,-213.75 422.45,-211.53 419.73,-209.28 417.26,-207.03 415.07,-204.77 413.16,-202.52 411.53,-200.27 410.18,-198.05 409.12,-195.84 408.36,-193.66 407.9,-191.5 407.75,-189.39 407.9,-187.31 408.36,-185.27 409.14,-183.27 410.23,-181.33 411.64,-179.43 413.38,-177.59 415.43,-175.79 417.8,-174.05 420.49,-172.37 423.5,-170.75 426.83,-169.18 430.46,-167.67 434.4,-166.22 438.65,-164.83 443.19,-163.5 448.01,-162.23 453.11,-161.03 458.48,-159.89 464.11,-158.81 469.97,-157.8 476.07,-156.86 482.38,-155.98 488.89,-155.18 495.59,-154.44 502.44,-153.78 509.44,-153.2 516.56,-152.7 523.78,-152.28 531.08,-151.94 538.44,-151.68 545.84,-151.52 553.24,-151.45 560.63,-151.47 567.97,-151.59 575.25,-151.81 582.45,-152.14 589.52,-152.57 596.46,-153.1 603.23,-153.75 609.81,-154.51 616.18,-155.38 622.32,-156.36 628.2,-157.46 633.79,-158.68 639.09,-160 644.07,-161.45 648.72,-163 653.01,-164.66 656.93,-166.44 660.48,-168.31 663.63,-170.29 666.37,-172.37 668.71,-174.54 670.62,-176.79 672.11,-179.12 673.17,-181.53 673.8,-184 674.01,-186.54 673.78,-189.12 673.13,-191.74 672.06,-194.39 670.58,-197.07 668.69,-199.76 666.41,-202.44 663.74,-205.13 660.7,-207.79 657.31,-210.42 653.57,-213.01 649.5,-215.55 645.13,-218.03"/>
<text text-anchor="middle" x="535.34" y="-189.95" font-family="sans-serif" font-size="16.00">GestionAlquileres</text>
</g>
<!-- GestionClientes -->
<g id="node2" class="node">
<title>GestionClientes</title>
<polygon fill="none" stroke="black" stroke-width="2" points="415.5,-41.31 416.58,-38.46 417.98,-35.65 419.7,-32.88 421.73,-30.17 424.07,-27.53 426.71,-24.97 429.65,-22.5 432.87,-20.14 436.37,-17.87 440.13,-15.73 444.15,-13.71 448.42,-11.82 452.91,-10.06 457.63,-8.45 462.56,-6.99 467.68,-5.67 472.98,-4.51 478.44,-3.5 484.06,-2.65 489.81,-1.96 495.68,-1.42 501.66,-1.03 507.73,-0.8 513.87,-0.72 520.06,-0.78 526.3,-0.99 532.56,-1.33 538.82,-1.81 545.08,-2.42 551.31,-3.15 557.49,-4 563.62,-4.96 569.67,-6.02 575.63,-7.18 581.49,-8.43 587.22,-9.76 592.81,-11.18 598.24,-12.66 603.52,-14.21 608.6,-15.81 613.5,-17.47 618.18,-19.18 622.64,-20.92 626.87,-22.7 630.85,-24.52 634.58,-26.36 638.04,-28.22 641.22,-30.1 644.12,-31.99 646.73,-33.9 649.03,-35.81 651.03,-37.73 652.71,-39.66 654.07,-41.58 655.12,-43.51 655.83,-45.43 656.22,-47.36 656.27,-49.27 656,-51.19 655.39,-53.09 654.45,-54.99 653.19,-56.87 651.6,-58.75 649.69,-60.61 647.46,-62.46 644.92,-64.3 642.08,-66.12 638.94,-67.91 635.51,-69.69 631.81,-71.43 627.83,-73.15 623.59,-74.84 619.11,-76.49 614.39,-78.1 609.45,-79.67 604.3,-81.19 598.96,-82.65 593.44,-84.06 587.75,-85.39 581.92,-86.66 575.95,-87.86 569.87,-88.96 563.69,-89.99 557.43,-90.91 551.1,-91.74 544.73,-92.46 538.34,-93.07 531.93,-93.56 525.53,-93.92 519.17,-94.16 512.84,-94.27 506.58,-94.24 500.4,-94.07 494.32,-93.75 488.35,-93.29 482.52,-92.68 476.83,-91.92 471.31,-91.01 465.97,-89.95 460.83,-88.74 455.89,-87.38 451.18,-85.88 446.7,-84.24 442.47,-82.46 438.5,-80.54 434.8,-78.5 431.39,-76.34 428.26,-74.06 425.43,-71.68 422.91,-69.2 420.7,-66.63 418.81,-63.99 417.24,-61.28 416,-58.51 415.09,-55.69 414.51,-52.84 414.26,-49.96 414.34,-47.07 414.76,-44.19 415.5,-41.31"/>
<text text-anchor="middle" x="535.34" y="-44.13" font-family="sans-serif" font-size="16.00">GestionClientes</text>
</g>
<!-- GestionAlquileres&#45;&gt;GestionClientes -->
<g id="edge1" class="edge">
<title>GestionAlquileres&#45;&gt;GestionClientes</title>
<path fill="none" stroke="black" stroke-width="2" d="M535.34,-151.54C535.34,-133.36 535.34,-111.96 535.34,-93.42"/>
<text text-anchor="middle" x="610.84" y="-117.26" font-family="sans-serif" font-size="12.00"> &#160;&#160;&#160;&#160;&#160;&#160;&#160;&#160;&#160;&#160;&#160;&#160;&#160;&#160;&#160;&#160;&#160;&#160;&#160;&#160;&#160;&#160;&#160;&#160;&#160;&#160;&#160;&#160;&#160;&#160;&#160;&#160;&#160;&#160;&#160;&#160;&#160;&#160;&#160;</text>
<polygon fill="white" stroke="transparent" points="528.34,-84.42 528.34,-101.42 542.34,-101.42 542.34,-84.42 528.34,-84.42"/>
<text text-anchor="start" x="530.34" y="-89.82" font-family="sans-serif" font-size="12.00">D</text>
<polygon fill="white" stroke="transparent" points="528.34,-142.54 528.34,-159.54 542.34,-159.54 542.34,-142.54 528.34,-142.54"/>
<text text-anchor="start" x="530.34" y="-147.94" font-family="sans-serif" font-size="12.00">U</text>
</g>
<!-- GestionPagos -->
<g id="node3" class="node">
<title>GestionPagos</title>
<polygon fill="none" stroke="black" stroke-width="2" points="226.81,-18.94 231.58,-21.07 236.09,-23.26 240.32,-25.51 244.27,-27.8 247.9,-30.14 251.21,-32.51 254.19,-34.91 256.81,-37.32 259.06,-39.74 260.95,-42.15 262.45,-44.56 263.56,-46.96 264.28,-49.33 264.61,-51.67 264.54,-53.97 264.08,-56.23 263.22,-58.44 261.98,-60.6 260.35,-62.71 258.36,-64.75 256,-66.72 253.28,-68.63 250.23,-70.46 246.85,-72.21 243.16,-73.89 239.18,-75.48 234.93,-77 230.42,-78.43 225.67,-79.77 220.7,-81.03 215.54,-82.2 210.21,-83.29 204.72,-84.29 199.1,-85.2 193.37,-86.02 187.55,-86.75 181.67,-87.4 175.74,-87.96 169.78,-88.43 163.82,-88.81 157.87,-89.1 151.96,-89.31 146.09,-89.43 140.29,-89.46 134.58,-89.4 128.96,-89.26 123.45,-89.03 118.07,-88.71 112.83,-88.3 107.73,-87.8 102.79,-87.21 98.01,-86.53 93.41,-85.77 88.99,-84.91 84.75,-83.97 80.7,-82.93 76.85,-81.81 73.2,-80.6 69.75,-79.3 66.5,-77.91 63.46,-76.43 60.62,-74.87 58,-73.23 55.57,-71.51 53.36,-69.71 51.36,-67.83 49.57,-65.88 47.98,-63.85 46.6,-61.77 45.44,-59.62 44.48,-57.42 43.73,-55.16 43.19,-52.86 42.86,-50.52 42.75,-48.15 42.85,-45.75 43.16,-43.33 43.69,-40.9 44.43,-38.47 45.39,-36.04 46.58,-33.62 47.98,-31.22 49.61,-28.86 51.47,-26.53 53.55,-24.24 55.85,-22.02 58.39,-19.85 61.15,-17.76 64.14,-15.76 67.35,-13.84 70.79,-12.02 74.45,-10.3 78.33,-8.7 82.43,-7.21 86.73,-5.85 91.24,-4.63 95.95,-3.54 100.85,-2.59 105.92,-1.79 111.17,-1.13 116.57,-0.63 122.12,-0.29 127.8,-0.1 133.6,-0.07 139.5,-0.2 145.48,-0.48 151.53,-0.92 157.63,-1.51 163.75,-2.25 169.89,-3.14 176.01,-4.17 182.09,-5.34 188.12,-6.64 194.06,-8.07 199.91,-9.62 205.63,-11.29 211.2,-13.06 216.6,-14.93 221.81,-16.9 226.81,-18.94"/>
<text text-anchor="middle" x="145.34" y="-44.13" font-family="sans-serif" font-size="16.00">GestionPagos</text>
</g>
<!-- GestionAlquileres&#45;&gt;GestionPagos -->
<g id="edge2" class="edge">
<title>GestionAlquileres&#45;&gt;GestionPagos</title>
<path fill="none" stroke="black" stroke-width="2" d="M457.08,-160C421.36,-145.38 378.41,-128.24 339.34,-113.86 305.18,-101.28 267.27,-88.36 234.1,-77.4"/>
<text text-anchor="middle" x="446.84" y="-117.26" font-family="sans-serif" font-size="12.00"> &#160;&#160;&#160;&#160;&#160;&#160;&#160;&#160;&#160;&#160;&#160;&#160;&#160;&#160;&#160;&#160;&#160;&#160;&#160;&#160;&#160;&#160;&#160;&#160;&#160;&#160;&#160;&#160;&#160;&#160;&#160;&#160;&#160;&#160;&#160;&#160;&#160;&#160;&#160;</text>
<polygon fill="white" stroke="transparent" points="211.1,-67.4 211.1,-86.4 227.1,-86.4 227.1,-67.4 211.1,-67.4"/>
<polyline fill="none" stroke="black" points="227.1,-67.4 227.1,-86.4 "/>
<text text-anchor="start" x="214.1" y="-73.8" font-family="sans-serif" font-size="12.00">D</text>
<polygon fill="white" stroke="transparent" points="227.1,-67.4 227.1,-86.4 257.1,-86.4 257.1,-67.4 227.1,-67.4"/>
<polygon fill="none" stroke="black" points="227.1,-67.4 227.1,-86.4 257.1,-86.4 257.1,-67.4 227.1,-67.4"/>
<text text-anchor="start" x="230.1" y="-73.8" font-family="sans-serif" font-size="12.00">ACL</text>
<polygon fill="white" stroke="transparent" points="450.08,-151 450.08,-168 464.08,-168 464.08,-151 450.08,-151"/>
<text text-anchor="start" x="452.08" y="-156.4" font-family="sans-serif" font-size="12.00">U</text>
</g>
<!-- GestionClientes&#45;&gt;GestionAlquileres -->
<g id="edge3" class="edge">
<title>GestionClientes&#45;&gt;GestionAlquileres</title>
<path fill="none" stroke="black" stroke-width="2" d="M632.97,-71.1C654.37,-80.67 674.46,-94.34 687.34,-113.86 703.07,-137.68 685.62,-154.73 657.68,-166.73"/>
<text text-anchor="middle" x="767.84" y="-117.26" font-family="sans-serif" font-size="12.00"> &#160;&#160;&#160;&#160;&#160;&#160;&#160;&#160;&#160;&#160;&#160;&#160;&#160;&#160;&#160;&#160;&#160;&#160;&#160;&#160;&#160;&#160;&#160;&#160;&#160;&#160;&#160;&#160;&#160;&#160;&#160;&#160;&#160;&#160;&#160;&#160;&#160;&#160;&#160;</text>
<polygon fill="white" stroke="transparent" points="650.68,-157.73 650.68,-174.73 664.68,-174.73 664.68,-157.73 650.68,-157.73"/>
<text text-anchor="start" x="652.68" y="-163.13" font-family="sans-serif" font-size="12.00">D</text>
<polygon fill="white" stroke="transparent" points="625.97,-62.1 625.97,-79.1 639.97,-79.1 639.97,-62.1 625.97,-62.1"/>
<text text-anchor="start" x="627.97" y="-67.5" font-family="sans-serif" font-size="12.00">U</text>
</g>
<!-- GestionVehiculos -->
<g id="node4" class="node">
<title>GestionVehiculos</title>
<polygon fill="none" stroke="black" stroke-width="2" points="617.59,-373.81 611.12,-375.66 604.46,-377.41 597.64,-379.05 590.68,-380.57 583.62,-381.97 576.48,-383.22 569.27,-384.35 562.04,-385.32 554.8,-386.15 547.58,-386.83 540.4,-387.36 533.29,-387.73 526.26,-387.94 519.33,-387.99 512.53,-387.88 505.86,-387.61 499.36,-387.19 493.03,-386.61 486.88,-385.87 480.94,-384.99 475.21,-383.97 469.69,-382.8 464.41,-381.5 459.37,-380.07 454.57,-378.51 450.02,-376.84 445.72,-375.06 441.69,-373.18 437.91,-371.21 434.4,-369.15 431.15,-367.02 428.16,-364.82 425.44,-362.56 422.99,-360.25 420.8,-357.89 418.88,-355.51 417.21,-353.1 415.81,-350.68 414.67,-348.24 413.79,-345.81 413.17,-343.39 412.8,-340.99 412.7,-338.6 412.85,-336.25 413.25,-333.93 413.91,-331.66 414.83,-329.44 416,-327.27 417.43,-325.15 419.12,-323.1 421.06,-321.12 423.26,-319.21 425.71,-317.37 428.42,-315.6 431.39,-313.92 434.62,-312.32 438.1,-310.79 441.83,-309.35 445.82,-308 450.06,-306.73 454.54,-305.55 459.27,-304.45 464.23,-303.45 469.42,-302.53 474.84,-301.69 480.47,-300.95 486.31,-300.29 492.35,-299.71 498.57,-299.23 504.96,-298.83 511.51,-298.52 518.21,-298.29 525.03,-298.16 531.95,-298.11 538.97,-298.14 546.06,-298.27 553.19,-298.48 560.35,-298.78 567.51,-299.16 574.65,-299.64 581.74,-300.2 588.76,-300.86 595.69,-301.6 602.5,-302.44 609.15,-303.36 615.64,-304.37 621.92,-305.47 627.98,-306.67 633.79,-307.95 639.33,-309.32 644.56,-310.78 649.48,-312.32 654.06,-313.95 658.27,-315.67 662.11,-317.46 665.54,-319.33 668.57,-321.28 671.16,-323.3 673.32,-325.38 675.03,-327.53 676.28,-329.74 677.07,-332 677.39,-334.32 677.24,-336.67 676.62,-339.06 675.54,-341.47 673.99,-343.91 671.99,-346.36 669.55,-348.82 666.66,-351.28 663.36,-353.72 659.65,-356.15 655.55,-358.54 651.08,-360.91 646.25,-363.22 641.09,-365.48 635.62,-367.68 629.87,-369.81 623.85,-371.85 617.59,-373.81"/>
<text text-anchor="middle" x="535.34" y="-335.95" font-family="sans-serif" font-size="16.00">GestionVehiculos</text>
</g>
<!-- GestionVehiculos&#45;&gt;GestionAlquileres -->
<g id="edge4" class="edge">
<title>GestionVehiculos&#45;&gt;GestionAlquileres</title>
<path fill="none" stroke="black" stroke-width="2" d="M535.34,-297.87C535.34,-280.66 535.34,-260.51 535.34,-242.61"/>
<text text-anchor="middle" x="577.34" y="-264.04" font-family="sans-serif" font-size="12.00">Shared Kernel</text>
</g>
<!-- Seguridad -->
<g id="node5" class="node">
<title>Seguridad</title>
<polygon fill="none" stroke="black" stroke-width="2" points="148.81,-230.79 143.86,-232.36 138.8,-233.82 133.67,-235.16 128.47,-236.37 123.22,-237.46 117.95,-238.41 112.68,-239.22 107.43,-239.89 102.2,-240.41 97.03,-240.79 91.92,-241.01 86.9,-241.08 81.97,-241 77.16,-240.76 72.47,-240.37 67.92,-239.83 63.52,-239.15 59.27,-238.31 55.2,-237.34 51.3,-236.22 47.59,-234.97 44.06,-233.59 40.72,-232.08 37.59,-230.46 34.65,-228.73 31.91,-226.89 29.38,-224.95 27.06,-222.93 24.93,-220.82 23.02,-218.65 21.3,-216.4 19.78,-214.1 18.46,-211.76 17.34,-209.37 16.41,-206.96 15.68,-204.52 15.13,-202.07 14.77,-199.62 14.58,-197.17 14.58,-194.73 14.76,-192.31 15.11,-189.92 15.63,-187.56 16.33,-185.24 17.19,-182.97 18.21,-180.75 19.41,-178.59 20.76,-176.49 22.28,-174.46 23.96,-172.5 25.81,-170.62 27.81,-168.82 29.97,-167.11 32.29,-165.47 34.77,-163.93 37.41,-162.48 40.21,-161.12 43.15,-159.85 46.26,-158.68 49.51,-157.6 52.91,-156.61 56.46,-155.72 60.16,-154.93 63.99,-154.24 67.95,-153.64 72.04,-153.13 76.25,-152.72 80.58,-152.4 85.01,-152.18 89.54,-152.05 94.16,-152.01 98.86,-152.07 103.62,-152.21 108.43,-152.45 113.28,-152.77 118.16,-153.19 123.05,-153.69 127.94,-154.28 132.81,-154.96 137.63,-155.72 142.41,-156.57 147.11,-157.51 151.73,-158.53 156.23,-159.63 160.62,-160.82 164.86,-162.09 168.93,-163.44 172.83,-164.86 176.54,-166.37 180.03,-167.95 183.3,-169.61 186.32,-171.34 189.08,-173.14 191.57,-175.01 193.78,-176.94 195.69,-178.93 197.3,-180.98 198.6,-183.08 199.57,-185.23 200.21,-187.43 200.53,-189.66 200.5,-191.93 200.15,-194.23 199.45,-196.55 198.43,-198.88 197.07,-201.22 195.39,-203.57 193.39,-205.91 191.08,-208.24 188.47,-210.55 185.56,-212.83 182.39,-215.07 178.94,-217.27 175.25,-219.42 171.33,-221.51 167.18,-223.54 162.84,-225.48 158.32,-227.35 153.63,-229.12 148.81,-230.79"/>
<text text-anchor="middle" x="100.34" y="-189.95" font-family="sans-serif" font-size="16.00">Seguridad</text>
</g>
<!-- Seguridad&#45;&gt;GestionClientes -->
<g id="edge5" class="edge">
<title>Seguridad&#45;&gt;GestionClientes</title>
<path fill="none" stroke="black" stroke-width="2" d="M136.34,-155.06C153.86,-137.54 173.45,-119.37 184.34,-113.86 189.79,-111.1 321.81,-87.09 422.33,-69.06"/>
<text text-anchor="middle" x="259.84" y="-117.26" font-family="sans-serif" font-size="12.00"> &#160;&#160;&#160;&#160;&#160;&#160;&#160;&#160;&#160;&#160;&#160;&#160;&#160;&#160;&#160;&#160;&#160;&#160;&#160;&#160;&#160;&#160;&#160;&#160;&#160;&#160;&#160;&#160;&#160;&#160;&#160;&#160;&#160;&#160;&#160;&#160;&#160;&#160;&#160;</text>
<polygon fill="white" stroke="transparent" points="415.33,-60.06 415.33,-77.06 429.33,-77.06 429.33,-60.06 415.33,-60.06"/>
<text text-anchor="start" x="417.33" y="-65.46" font-family="sans-serif" font-size="12.00">D</text>
<polygon fill="white" stroke="transparent" points="112.34,-145.06 112.34,-164.06 128.34,-164.06 128.34,-145.06 112.34,-145.06"/>
<polyline fill="none" stroke="black" points="128.34,-145.06 128.34,-164.06 "/>
<text text-anchor="start" x="115.34" y="-151.46" font-family="sans-serif" font-size="12.00">U</text>
<polygon fill="white" stroke="transparent" points="128.34,-145.06 128.34,-164.06 161.34,-164.06 161.34,-145.06 128.34,-145.06"/>
<polygon fill="none" stroke="black" points="128.34,-145.06 128.34,-164.06 161.34,-164.06 161.34,-145.06 128.34,-145.06"/>
<text text-anchor="start" x="131.34" y="-151.46" font-family="sans-serif" font-size="12.00">OHS</text>
</g>
<!-- Seguridad&#45;&gt;GestionPagos -->
<g id="edge6" class="edge">
<title>Seguridad&#45;&gt;GestionPagos</title>
<path fill="none" stroke="black" stroke-width="2" d="M36.05,-162.96C16.43,-149.56 2.75,-132.54 14.34,-113.86 24.98,-96.71 41.65,-83.95 59.57,-74.51"/>
<text text-anchor="middle" x="89.84" y="-117.26" font-family="sans-serif" font-size="12.00"> &#160;&#160;&#160;&#160;&#160;&#160;&#160;&#160;&#160;&#160;&#160;&#160;&#160;&#160;&#160;&#160;&#160;&#160;&#160;&#160;&#160;&#160;&#160;&#160;&#160;&#160;&#160;&#160;&#160;&#160;&#160;&#160;&#160;&#160;&#160;&#160;&#160;&#160;&#160;</text>
<polygon fill="white" stroke="transparent" points="52.57,-65.51 52.57,-82.51 66.57,-82.51 66.57,-65.51 52.57,-65.51"/>
<text text-anchor="start" x="54.57" y="-70.91" font-family="sans-serif" font-size="12.00">D</text>
<polygon fill="white" stroke="transparent" points="12.05,-152.96 12.05,-171.96 28.05,-171.96 28.05,-152.96 12.05,-152.96"/>
<polyline fill="none" stroke="black" points="28.05,-152.96 28.05,-171.96 "/>
<text text-anchor="start" x="15.05" y="-159.36" font-family="sans-serif" font-size="12.00">U</text>
<polygon fill="white" stroke="transparent" points="28.05,-152.96 28.05,-171.96 61.05,-171.96 61.05,-152.96 28.05,-152.96"/>
<polygon fill="none" stroke="black" points="28.05,-152.96 28.05,-171.96 61.05,-171.96 61.05,-152.96 28.05,-152.96"/>
<text text-anchor="start" x="31.05" y="-159.36" font-family="sans-serif" font-size="12.00">OHS</text>
</g>
</g>
</svg>
