<svg width="2000px" height="1243px"
 viewBox="0.00 0.00 636.60 396.10" xmlns="http://www.w3.org/2000/svg" xmlns:xlink="http://www.w3.org/1999/xlink">
<g id="graph0" class="graph" transform="scale(1.0 1.0) rotate(0) translate(4 392.1)">
<title>ContextMapGraph</title>
<polygon fill="white" stroke="transparent" points="-4,4 -4,-392.1 632.6,-392.1 632.6,4 -4,4"/>
<!-- GestionAlquileres -->
<g id="node1" class="node">
<title>GestionAlquileres</title>
<polygon fill="none" stroke="black" stroke-width="2" points="270.8,-222.68 265.25,-220.48 260.01,-218.22 255.11,-215.91 250.57,-213.55 246.41,-211.15 242.64,-208.72 239.29,-206.28 236.36,-203.82 233.88,-201.36 231.85,-198.91 230.28,-196.47 229.18,-194.06 228.55,-191.67 228.4,-189.32 228.73,-187.01 229.53,-184.74 230.8,-182.54 232.53,-180.39 234.72,-178.3 237.36,-176.28 240.43,-174.33 243.91,-172.46 247.81,-170.67 252.09,-168.96 256.73,-167.33 261.72,-165.78 267.04,-164.32 272.66,-162.95 278.56,-161.67 284.71,-160.48 291.09,-159.37 297.67,-158.36 304.43,-157.44 311.34,-156.6 318.37,-155.86 325.5,-155.21 332.7,-154.64 339.95,-154.17 347.22,-153.78 354.49,-153.48 361.73,-153.27 368.92,-153.14 376.04,-153.11 383.08,-153.16 390,-153.3 396.79,-153.52 403.44,-153.83 409.93,-154.23 416.25,-154.72 422.38,-155.29 428.31,-155.95 434.03,-156.69 439.53,-157.53 444.8,-158.45 449.84,-159.46 454.63,-160.55 459.18,-161.73 463.48,-163 467.53,-164.36 471.32,-165.79 474.86,-167.32 478.13,-168.92 481.15,-170.61 483.9,-172.37 486.39,-174.21 488.62,-176.12 490.6,-178.1 492.31,-180.15 493.76,-182.27 494.95,-184.44 495.88,-186.66 496.55,-188.94 496.96,-191.25 497.11,-193.6 497,-195.99 496.63,-198.39 496,-200.81 495.11,-203.25 493.95,-205.68 492.53,-208.1 490.84,-210.51 488.88,-212.89 486.66,-215.25 484.17,-217.56 481.41,-219.82 478.38,-222.02 475.08,-224.15 471.52,-226.21 467.68,-228.18 463.58,-230.06 459.22,-231.84 454.61,-233.51 449.73,-235.07 444.61,-236.5 439.25,-237.8 433.65,-238.97 427.83,-239.99 421.8,-240.88 415.56,-241.61 409.13,-242.19 402.53,-242.61 395.77,-242.88 388.86,-242.99 381.83,-242.94 374.69,-242.73 367.47,-242.36 360.18,-241.83 352.85,-241.16 345.5,-240.33 338.16,-239.35 330.85,-238.23 323.59,-236.97 316.42,-235.57 309.36,-234.06 302.44,-232.42 295.68,-230.66 289.11,-228.81 282.76,-226.85 276.64,-224.81 270.8,-222.68"/>
<text text-anchor="middle" x="372.6" y="-190.95" font-family="sans-serif" font-size="16.00">GestionAlquileres</text>
</g>
<!-- GestionPagos -->
<g id="node2" class="node">
<title>GestionPagos</title>
<polygon fill="none" stroke="black" stroke-width="2" points="600.09,-40.17 601.59,-42.97 602.79,-45.78 603.67,-48.59 604.25,-51.38 604.5,-54.15 604.44,-56.88 604.05,-59.56 603.33,-62.18 602.3,-64.73 600.94,-67.21 599.26,-69.6 597.26,-71.9 594.95,-74.11 592.34,-76.2 589.43,-78.19 586.23,-80.05 582.74,-81.8 578.99,-83.42 574.98,-84.92 570.73,-86.28 566.24,-87.52 561.53,-88.62 556.62,-89.59 551.52,-90.43 546.24,-91.13 540.82,-91.71 535.26,-92.17 529.58,-92.49 523.8,-92.7 517.94,-92.79 512.01,-92.76 506.05,-92.62 500.05,-92.37 494.06,-92.03 488.07,-91.58 482.12,-91.04 476.23,-90.41 470.4,-89.69 464.65,-88.89 459.01,-88.02 453.49,-87.07 448.11,-86.05 442.88,-84.97 437.82,-83.82 432.94,-82.61 428.25,-81.35 423.76,-80.04 419.5,-78.67 415.46,-77.25 411.66,-75.79 408.1,-74.28 404.8,-72.72 401.76,-71.13 398.99,-69.49 396.48,-67.81 394.26,-66.1 392.31,-64.34 390.65,-62.55 389.27,-60.72 388.17,-58.86 387.36,-56.97 386.83,-55.04 386.59,-53.09 386.62,-51.1 386.94,-49.09 387.53,-47.05 388.39,-45 389.52,-42.93 390.91,-40.84 392.55,-38.74 394.45,-36.63 396.59,-34.53 398.97,-32.42 401.59,-30.32 404.43,-28.24 407.48,-26.18 410.74,-24.15 414.21,-22.15 417.87,-20.19 421.71,-18.27 425.73,-16.41 429.92,-14.62 434.26,-12.9 438.75,-11.25 443.38,-9.69 448.13,-8.23 453,-6.86 457.98,-5.61 463.06,-4.47 468.22,-3.46 473.46,-2.58 478.75,-1.83 484.1,-1.22 489.49,-0.76 494.9,-0.46 500.33,-0.31 505.76,-0.31 511.17,-0.48 516.56,-0.81 521.92,-1.31 527.22,-1.97 532.45,-2.8 537.61,-3.78 542.67,-4.93 547.63,-6.23 552.47,-7.69 557.17,-9.29 561.72,-11.04 566.11,-12.92 570.33,-14.93 574.35,-17.07 578.18,-19.31 581.79,-21.66 585.17,-24.11 588.31,-26.63 591.21,-29.24 593.84,-31.9 596.21,-34.62 598.29,-37.38 600.09,-40.17"/>
<text text-anchor="middle" x="493.6" y="-45.02" font-family="sans-serif" font-size="16.00">GestionPagos</text>
</g>
<!-- GestionAlquileres&#45;&gt;GestionPagos -->
<g id="edge1" class="edge">
<title>GestionAlquileres&#45;&gt;GestionPagos</title>
<path fill="none" stroke="black" stroke-width="2" d="M441.77,-157.7C452.98,-149.39 463.54,-139.69 471.6,-128.64 479.48,-117.85 484.54,-104.36 487.78,-91.6"/>
<text text-anchor="middle" x="553.1" y="-119.04" font-family="sans-serif" font-size="12.00"> &#160;&#160;&#160;&#160;&#160;&#160;&#160;&#160;&#160;&#160;&#160;&#160;&#160;&#160;&#160;&#160;&#160;&#160;&#160;&#160;&#160;&#160;&#160;&#160;&#160;&#160;&#160;&#160;&#160;&#160;&#160;&#160;&#160;&#160;&#160;&#160;&#160;&#160;&#160;</text>
<polygon fill="white" stroke="transparent" points="464.78,-81.6 464.78,-100.6 480.78,-100.6 480.78,-81.6 464.78,-81.6"/>
<polyline fill="none" stroke="black" points="480.78,-81.6 480.78,-100.6 "/>
<text text-anchor="start" x="467.78" y="-88" font-family="sans-serif" font-size="12.00">D</text>
<polygon fill="white" stroke="transparent" points="480.78,-81.6 480.78,-100.6 510.78,-100.6 510.78,-81.6 480.78,-81.6"/>
<polygon fill="none" stroke="black" points="480.78,-81.6 480.78,-100.6 510.78,-100.6 510.78,-81.6 480.78,-81.6"/>
<text text-anchor="start" x="483.78" y="-88" font-family="sans-serif" font-size="12.00">ACL</text>
<polygon fill="white" stroke="transparent" points="434.77,-148.7 434.77,-165.7 448.77,-165.7 448.77,-148.7 434.77,-148.7"/>
<text text-anchor="start" x="436.77" y="-154.1" font-family="sans-serif" font-size="12.00">U</text>
</g>
<!-- GestionClientes -->
<g id="node3" class="node">
<title>GestionClientes</title>
<polygon fill="none" stroke="black" stroke-width="2" points="37.9,-68.93 34.16,-66.41 30.73,-63.85 27.64,-61.26 24.9,-58.65 22.53,-56.03 20.52,-53.41 18.9,-50.81 17.67,-48.22 16.84,-45.66 16.42,-43.13 16.4,-40.65 16.79,-38.23 17.6,-35.86 18.81,-33.57 20.42,-31.34 22.44,-29.2 24.84,-27.14 27.64,-25.17 30.8,-23.29 34.33,-21.51 38.21,-19.83 42.43,-18.25 46.96,-16.78 51.8,-15.41 56.92,-14.14 62.3,-12.99 67.92,-11.94 73.77,-10.99 79.82,-10.15 86.04,-9.42 92.42,-8.79 98.93,-8.26 105.55,-7.83 112.25,-7.5 119.01,-7.26 125.81,-7.12 132.62,-7.06 139.42,-7.1 146.19,-7.23 152.91,-7.44 159.56,-7.74 166.11,-8.11 172.54,-8.57 178.85,-9.1 185.01,-9.72 191,-10.4 196.82,-11.17 202.43,-12 207.85,-12.91 213.04,-13.89 218,-14.94 222.73,-16.06 227.21,-17.25 231.43,-18.51 235.39,-19.84 239.08,-21.24 242.51,-22.7 245.66,-24.23 248.53,-25.83 251.12,-27.49 253.43,-29.21 255.46,-31 257.21,-32.84 258.69,-34.75 259.88,-36.71 260.79,-38.72 261.43,-40.79 261.8,-42.9 261.9,-45.05 261.73,-47.25 261.29,-49.47 260.6,-51.73 259.64,-54.01 258.43,-56.31 256.97,-58.61 255.26,-60.93 253.3,-63.24 251.11,-65.54 248.67,-67.82 246,-70.08 243.1,-72.31 239.98,-74.49 236.63,-76.62 233.06,-78.7 229.28,-80.71 225.29,-82.64 221.1,-84.48 216.7,-86.24 212.12,-87.89 207.35,-89.43 202.41,-90.86 197.29,-92.17 192.01,-93.34 186.58,-94.38 181,-95.27 175.29,-96.02 169.46,-96.62 163.52,-97.06 157.48,-97.34 151.36,-97.46 145.17,-97.41 138.92,-97.21 132.64,-96.83 126.33,-96.3 120.02,-95.6 113.72,-94.74 107.46,-93.73 101.24,-92.56 95.1,-91.25 89.04,-89.79 83.1,-88.19 77.28,-86.47 71.62,-84.62 66.13,-82.65 60.83,-80.58 55.75,-78.41 50.89,-76.15 46.28,-73.81 41.95,-71.4 37.9,-68.93"/>
<text text-anchor="middle" x="145.6" y="-45.02" font-family="sans-serif" font-size="16.00">GestionClientes</text>
</g>
<!-- GestionAlquileres&#45;&gt;GestionClientes -->
<g id="edge2" class="edge">
<title>GestionAlquileres&#45;&gt;GestionClientes</title>
<path fill="none" stroke="black" stroke-width="2" d="M271.59,-163.12C252.69,-157.53 233.07,-151.83 214.6,-146.64 184.51,-138.17 165.83,-153.29 146.6,-128.64 139.7,-119.79 137.12,-108.52 136.8,-97.29"/>
<text text-anchor="middle" x="222.1" y="-119.04" font-family="sans-serif" font-size="12.00"> &#160;&#160;&#160;&#160;&#160;&#160;&#160;&#160;&#160;&#160;&#160;&#160;&#160;&#160;&#160;&#160;&#160;&#160;&#160;&#160;&#160;&#160;&#160;&#160;&#160;&#160;&#160;&#160;&#160;&#160;&#160;&#160;&#160;&#160;&#160;&#160;&#160;&#160;&#160;</text>
<polygon fill="white" stroke="transparent" points="129.8,-88.29 129.8,-105.29 143.8,-105.29 143.8,-88.29 129.8,-88.29"/>
<text text-anchor="start" x="131.8" y="-93.69" font-family="sans-serif" font-size="12.00">D</text>
<polygon fill="white" stroke="transparent" points="264.59,-154.12 264.59,-171.12 278.59,-171.12 278.59,-154.12 264.59,-154.12"/>
<text text-anchor="start" x="266.59" y="-159.52" font-family="sans-serif" font-size="12.00">U</text>
</g>
<!-- GestionClientes&#45;&gt;GestionAlquileres -->
<g id="edge3" class="edge">
<title>GestionClientes&#45;&gt;GestionAlquileres</title>
<path fill="none" stroke="black" stroke-width="2" d="M231.2,-79.85C253.75,-89.61 277.41,-101.61 297.6,-115.64 313.04,-126.36 327.87,-140.63 340.2,-154.03"/>
<text text-anchor="middle" x="390.1" y="-119.04" font-family="sans-serif" font-size="12.00"> &#160;&#160;&#160;&#160;&#160;&#160;&#160;&#160;&#160;&#160;&#160;&#160;&#160;&#160;&#160;&#160;&#160;&#160;&#160;&#160;&#160;&#160;&#160;&#160;&#160;&#160;&#160;&#160;&#160;&#160;&#160;&#160;&#160;&#160;&#160;&#160;&#160;&#160;&#160;</text>
<polygon fill="white" stroke="transparent" points="333.2,-145.03 333.2,-162.03 347.2,-162.03 347.2,-145.03 333.2,-145.03"/>
<text text-anchor="start" x="335.2" y="-150.43" font-family="sans-serif" font-size="12.00">D</text>
<polygon fill="white" stroke="transparent" points="207.2,-69.85 207.2,-88.85 223.2,-88.85 223.2,-69.85 207.2,-69.85"/>
<polyline fill="none" stroke="black" points="223.2,-69.85 223.2,-88.85 "/>
<text text-anchor="start" x="210.2" y="-76.25" font-family="sans-serif" font-size="12.00">U</text>
<polygon fill="white" stroke="transparent" points="223.2,-69.85 223.2,-88.85 256.2,-88.85 256.2,-69.85 223.2,-69.85"/>
<polygon fill="none" stroke="black" points="223.2,-69.85 223.2,-88.85 256.2,-88.85 256.2,-69.85 223.2,-69.85"/>
<text text-anchor="start" x="226.2" y="-76.25" font-family="sans-serif" font-size="12.00">OHS</text>
</g>
<!-- GestionVehiculos -->
<g id="node4" class="node">
<title>GestionVehiculos</title>
<polygon fill="none" stroke="black" stroke-width="2" points="454.85,-374.04 448.38,-375.9 441.72,-377.65 434.9,-379.29 427.95,-380.81 420.88,-382.2 413.74,-383.46 406.54,-384.58 399.31,-385.56 392.07,-386.39 384.85,-387.07 377.67,-387.59 370.55,-387.96 363.52,-388.17 356.59,-388.22 349.79,-388.11 343.13,-387.85 336.62,-387.42 330.29,-386.84 324.15,-386.11 318.2,-385.23 312.47,-384.2 306.96,-383.03 301.67,-381.73 296.63,-380.3 291.83,-378.75 287.28,-377.08 282.99,-375.3 278.95,-373.42 275.17,-371.45 271.66,-369.39 268.41,-367.25 265.43,-365.05 262.71,-362.79 260.25,-360.48 258.06,-358.13 256.14,-355.74 254.48,-353.33 253.07,-350.91 251.93,-348.48 251.05,-346.05 250.43,-343.63 250.07,-341.22 249.96,-338.84 250.11,-336.49 250.51,-334.17 251.18,-331.9 252.09,-329.67 253.27,-327.5 254.69,-325.39 256.38,-323.34 258.32,-321.36 260.52,-319.44 262.97,-317.6 265.69,-315.84 268.66,-314.15 271.88,-312.55 275.36,-311.03 279.1,-309.59 283.08,-308.24 287.32,-306.97 291.8,-305.78 296.53,-304.69 301.49,-303.68 306.68,-302.76 312.1,-301.93 317.73,-301.18 323.58,-300.52 329.61,-299.95 335.83,-299.46 342.23,-299.07 348.78,-298.75 355.47,-298.53 362.29,-298.39 369.22,-298.34 376.23,-298.38 383.32,-298.5 390.45,-298.71 397.61,-299.01 404.77,-299.4 411.91,-299.87 419,-300.44 426.03,-301.09 432.95,-301.84 439.76,-302.67 446.42,-303.59 452.9,-304.61 459.18,-305.71 465.24,-306.9 471.05,-308.19 476.59,-309.56 481.83,-311.01 486.74,-312.56 491.32,-314.19 495.54,-315.9 499.37,-317.7 502.81,-319.57 505.83,-321.51 508.43,-323.53 510.58,-325.62 512.29,-327.77 513.54,-329.98 514.33,-332.24 514.65,-334.55 514.5,-336.9 513.88,-339.29 512.8,-341.71 511.25,-344.14 509.25,-346.6 506.81,-349.05 503.93,-351.51 500.63,-353.96 496.92,-356.38 492.82,-358.78 488.34,-361.14 483.52,-363.46 478.36,-365.72 472.89,-367.92 467.13,-370.04 461.11,-372.09 454.85,-374.04"/>
<text text-anchor="middle" x="372.6" y="-336.19" font-family="sans-serif" font-size="16.00">GestionVehiculos</text>
</g>
<!-- GestionVehiculos&#45;&gt;GestionAlquileres -->
<g id="edge4" class="edge">
<title>GestionVehiculos&#45;&gt;GestionAlquileres</title>
<path fill="none" stroke="black" stroke-width="2" d="M372.6,-298.33C372.6,-281.04 372.6,-260.77 372.6,-242.84"/>
<text text-anchor="middle" x="414.6" y="-264.27" font-family="sans-serif" font-size="12.00">Shared Kernel</text>
</g>
<!-- Seguridad -->
<g id="node5" class="node">
<title>Seguridad</title>
<polygon fill="none" stroke="black" stroke-width="2" points="181.31,-342.02 181.13,-344.89 180.69,-347.75 180.01,-350.56 179.08,-353.33 177.9,-356.05 176.49,-358.69 174.83,-361.26 172.94,-363.74 170.82,-366.12 168.48,-368.4 165.92,-370.56 163.15,-372.6 160.18,-374.52 157.01,-376.3 153.66,-377.94 150.13,-379.44 146.43,-380.8 142.57,-382.01 138.57,-383.07 134.44,-383.98 130.18,-384.74 125.81,-385.35 121.34,-385.81 116.78,-386.13 112.15,-386.3 107.46,-386.33 102.72,-386.22 97.95,-385.98 93.16,-385.62 88.36,-385.13 83.57,-384.52 78.8,-383.8 74.06,-382.97 69.37,-382.04 64.74,-381.02 60.18,-379.91 55.71,-378.72 51.34,-377.45 47.08,-376.11 42.94,-374.71 38.94,-373.25 35.08,-371.73 31.38,-370.16 27.85,-368.55 24.49,-366.9 21.32,-365.21 18.34,-363.49 15.56,-361.74 12.99,-359.97 10.64,-358.17 8.51,-356.36 6.61,-354.52 4.94,-352.67 3.51,-350.81 2.32,-348.93 1.37,-347.04 0.67,-345.15 0.22,-343.24 0.01,-341.33 0.05,-339.41 0.34,-337.49 0.88,-335.57 1.66,-333.64 2.68,-331.71 3.94,-329.79 5.43,-327.87 7.16,-325.95 9.11,-324.05 11.28,-322.15 13.67,-320.27 16.26,-318.41 19.05,-316.57 22.04,-314.76 25.2,-312.98 28.55,-311.23 32.06,-309.53 35.72,-307.87 39.53,-306.27 43.48,-304.72 47.56,-303.23 51.74,-301.82 56.04,-300.49 60.42,-299.24 64.89,-298.08 69.42,-297.02 74.01,-296.06 78.64,-295.21 83.31,-294.48 88,-293.87 92.69,-293.39 97.38,-293.05 102.05,-292.84 106.69,-292.78 111.29,-292.86 115.84,-293.09 120.31,-293.48 124.71,-294.02 129.02,-294.71 133.23,-295.56 137.32,-296.57 141.29,-297.73 145.13,-299.05 148.82,-300.51 152.35,-302.12 155.72,-303.88 158.92,-305.77 161.93,-307.79 164.75,-309.93 167.37,-312.19 169.78,-314.56 171.98,-317.03 173.96,-319.59 175.72,-322.23 177.24,-324.94 178.53,-327.71 179.57,-330.52 180.38,-333.37 180.94,-336.24 181.25,-339.13 181.31,-342.02"/>
<text text-anchor="middle" x="90.6" y="-336.19" font-family="sans-serif" font-size="16.00">Seguridad</text>
</g>
<!-- Seguridad&#45;&gt;GestionAlquileres -->
<g id="edge6" class="edge">
<title>Seguridad&#45;&gt;GestionAlquileres</title>
<path fill="none" stroke="black" stroke-width="2" d="M148.96,-300.5C170.16,-287.21 194.58,-272.7 217.6,-260.87 239.93,-249.4 264.75,-238.29 287.87,-228.59"/>
<text text-anchor="middle" x="293.1" y="-264.27" font-family="sans-serif" font-size="12.00"> &#160;&#160;&#160;&#160;&#160;&#160;&#160;&#160;&#160;&#160;&#160;&#160;&#160;&#160;&#160;&#160;&#160;&#160;&#160;&#160;&#160;&#160;&#160;&#160;&#160;&#160;&#160;&#160;&#160;&#160;&#160;&#160;&#160;&#160;&#160;&#160;&#160;&#160;&#160;</text>
<polygon fill="white" stroke="transparent" points="280.87,-219.59 280.87,-236.59 294.87,-236.59 294.87,-219.59 280.87,-219.59"/>
<text text-anchor="start" x="282.87" y="-224.99" font-family="sans-serif" font-size="12.00">D</text>
<polygon fill="white" stroke="transparent" points="141.96,-291.5 141.96,-308.5 155.96,-308.5 155.96,-291.5 141.96,-291.5"/>
<text text-anchor="start" x="143.96" y="-296.9" font-family="sans-serif" font-size="12.00">U</text>
</g>
<!-- Seguridad&#45;&gt;GestionClientes -->
<g id="edge5" class="edge">
<title>Seguridad&#45;&gt;GestionClientes</title>
<path fill="none" stroke="black" stroke-width="2" d="M75.01,-295.76C63.12,-255.96 51.43,-195.82 68.6,-146.64 75.47,-126.97 88.19,-108.31 101.34,-92.71"/>
<text text-anchor="middle" x="144.1" y="-191.65" font-family="sans-serif" font-size="12.00"> &#160;&#160;&#160;&#160;&#160;&#160;&#160;&#160;&#160;&#160;&#160;&#160;&#160;&#160;&#160;&#160;&#160;&#160;&#160;&#160;&#160;&#160;&#160;&#160;&#160;&#160;&#160;&#160;&#160;&#160;&#160;&#160;&#160;&#160;&#160;&#160;&#160;&#160;&#160;</text>
<polygon fill="white" stroke="transparent" points="94.34,-83.71 94.34,-100.71 108.34,-100.71 108.34,-83.71 94.34,-83.71"/>
<text text-anchor="start" x="96.34" y="-89.11" font-family="sans-serif" font-size="12.00">D</text>
<polygon fill="white" stroke="transparent" points="68.01,-286.76 68.01,-303.76 82.01,-303.76 82.01,-286.76 68.01,-286.76"/>
<text text-anchor="start" x="70.01" y="-292.16" font-family="sans-serif" font-size="12.00">U</text>
</g>
</g>
</svg>
