<svg width="2000px" height="941px"
 viewBox="0.00 0.00 842.16 395.85" xmlns="http://www.w3.org/2000/svg" xmlns:xlink="http://www.w3.org/1999/xlink">
<g id="graph0" class="graph" transform="scale(1.0 1.0) rotate(0) translate(4 391.85)">
<title>ContextMapGraph</title>
<polygon fill="white" stroke="transparent" points="-4,4 -4,-391.85 838.16,-391.85 838.16,4 -4,4"/>
<!-- GestionAlquileres -->
<g id="node1" class="node">
<title>GestionAlquileres</title>
<polygon fill="none" stroke="black" stroke-width="2" points="448.01,-157.98 454.87,-156.25 461.9,-154.63 469.08,-153.13 476.38,-151.74 483.77,-150.48 491.22,-149.36 498.7,-148.37 506.2,-147.53 513.67,-146.83 521.11,-146.29 528.48,-145.89 535.76,-145.65 542.93,-145.57 549.97,-145.64 556.86,-145.87 563.58,-146.25 570.12,-146.79 576.46,-147.48 582.58,-148.31 588.48,-149.29 594.14,-150.41 599.55,-151.67 604.71,-153.05 609.6,-154.57 614.23,-156.19 618.59,-157.93 622.67,-159.77 626.47,-161.71 630,-163.74 633.24,-165.84 636.2,-168.02 638.89,-170.26 641.29,-172.55 643.42,-174.89 645.28,-177.26 646.86,-179.66 648.17,-182.08 649.21,-184.51 649.99,-186.95 650.5,-189.38 650.75,-191.79 650.75,-194.19 650.48,-196.56 649.96,-198.89 649.19,-201.18 648.16,-203.43 646.88,-205.62 645.35,-207.75 643.57,-209.83 641.54,-211.83 639.26,-213.77 636.73,-215.63 633.94,-217.41 630.92,-219.11 627.64,-220.73 624.11,-222.27 620.34,-223.72 616.32,-225.08 612.06,-226.36 607.56,-227.54 602.83,-228.63 597.86,-229.64 592.66,-230.55 587.25,-231.37 581.62,-232.11 575.78,-232.75 569.75,-233.3 563.53,-233.76 557.14,-234.13 550.59,-234.42 543.89,-234.61 537.06,-234.71 530.12,-234.73 523.08,-234.66 515.96,-234.5 508.79,-234.25 501.58,-233.91 494.36,-233.49 487.15,-232.98 479.98,-232.38 472.86,-231.69 465.84,-230.92 458.92,-230.06 452.14,-229.11 445.53,-228.08 439.11,-226.96 432.9,-225.75 426.94,-224.46 421.24,-223.08 415.84,-221.63 410.75,-220.08 406,-218.46 401.61,-216.76 397.6,-214.99 393.99,-213.14 390.79,-211.22 388.03,-209.24 385.71,-207.19 383.84,-205.08 382.45,-202.91 381.52,-200.7 381.08,-198.44 381.12,-196.14 381.64,-193.8 382.64,-191.44 384.12,-189.06 386.07,-186.67 388.48,-184.27 391.35,-181.87 394.66,-179.49 398.39,-177.12 402.54,-174.77 407.08,-172.47 411.99,-170.2 417.25,-167.99 422.84,-165.83 428.74,-163.75 434.92,-161.74 441.35,-159.82 448.01,-157.98"/>
<text text-anchor="middle" x="526.16" y="-189.45" font-family="sans-serif" font-size="16.00">GestionAlquileres</text>
</g>
<!-- GestionClientes -->
<g id="node2" class="node">
<title>GestionClientes</title>
<polygon fill="none" stroke="black" stroke-width="2" points="431.2,-75.58 426.19,-73.35 421.49,-71.05 417.09,-68.71 413.03,-66.31 409.31,-63.89 405.97,-61.43 403,-58.97 400.43,-56.49 398.27,-54.01 396.52,-51.54 395.19,-49.09 394.29,-46.67 393.83,-44.27 393.81,-41.91 394.22,-39.6 395.06,-37.34 396.33,-35.14 398.03,-32.99 400.14,-30.92 402.66,-28.91 405.58,-26.98 408.88,-25.12 412.55,-23.35 416.56,-21.66 420.91,-20.05 425.58,-18.53 430.54,-17.1 435.77,-15.76 441.26,-14.51 446.97,-13.36 452.89,-12.29 459,-11.31 465.25,-10.43 471.65,-9.63 478.15,-8.93 484.74,-8.31 491.39,-7.79 498.08,-7.36 504.78,-7.01 511.48,-6.75 518.15,-6.59 524.77,-6.5 531.32,-6.51 537.79,-6.6 544.15,-6.78 550.39,-7.04 556.49,-7.39 562.44,-7.83 568.22,-8.35 573.83,-8.96 579.25,-9.66 584.48,-10.44 589.49,-11.31 594.3,-12.26 598.88,-13.3 603.24,-14.42 607.37,-15.63 611.27,-16.93 614.92,-18.31 618.34,-19.77 621.52,-21.32 624.45,-22.95 627.14,-24.65 629.59,-26.43 631.79,-28.29 633.76,-30.22 635.47,-32.22 636.95,-34.28 638.18,-36.41 639.17,-38.59 639.92,-40.82 640.43,-43.1 640.7,-45.42 640.72,-47.78 640.51,-50.17 640.05,-52.57 639.35,-55 638.42,-57.43 637.23,-59.85 635.81,-62.27 634.14,-64.68 632.23,-67.06 630.07,-69.4 627.67,-71.7 625.02,-73.95 622.13,-76.13 619,-78.25 615.62,-80.29 612,-82.25 608.14,-84.1 604.04,-85.86 599.71,-87.51 595.16,-89.03 590.38,-90.44 585.39,-91.71 580.19,-92.85 574.78,-93.84 569.19,-94.69 563.42,-95.39 557.48,-95.93 551.39,-96.32 545.15,-96.55 538.8,-96.61 532.33,-96.52 525.78,-96.27 519.15,-95.86 512.47,-95.29 505.76,-94.57 499.05,-93.69 492.34,-92.67 485.67,-91.5 479.06,-90.2 472.54,-88.76 466.12,-87.2 459.83,-85.52 453.69,-83.72 447.74,-81.83 441.99,-79.83 436.47,-77.75 431.2,-75.58"/>
<text text-anchor="middle" x="526.16" y="-44.4" font-family="sans-serif" font-size="16.00">GestionClientes</text>
</g>
<!-- GestionAlquileres&#45;&gt;GestionClientes -->
<g id="edge1" class="edge">
<title>GestionAlquileres&#45;&gt;GestionClientes</title>
<path fill="none" stroke="black" stroke-width="2" d="M526.16,-145.81C526.16,-129.98 526.16,-112.28 526.16,-96.39"/>
<text text-anchor="middle" x="601.66" y="-117.81" font-family="sans-serif" font-size="12.00"> &#160;&#160;&#160;&#160;&#160;&#160;&#160;&#160;&#160;&#160;&#160;&#160;&#160;&#160;&#160;&#160;&#160;&#160;&#160;&#160;&#160;&#160;&#160;&#160;&#160;&#160;&#160;&#160;&#160;&#160;&#160;&#160;&#160;&#160;&#160;&#160;&#160;&#160;&#160;</text>
<polygon fill="white" stroke="transparent" points="519.16,-87.39 519.16,-104.39 533.16,-104.39 533.16,-87.39 519.16,-87.39"/>
<text text-anchor="start" x="521.16" y="-92.79" font-family="sans-serif" font-size="12.00">D</text>
<polygon fill="white" stroke="transparent" points="519.16,-136.81 519.16,-153.81 533.16,-153.81 533.16,-136.81 519.16,-136.81"/>
<text text-anchor="start" x="521.16" y="-142.21" font-family="sans-serif" font-size="12.00">U</text>
</g>
<!-- GestionPagos -->
<g id="node3" class="node">
<title>GestionPagos</title>
<polygon fill="none" stroke="black" stroke-width="2" points="82.01,-8.67 88.31,-7.35 94.71,-6.15 101.18,-5.08 107.68,-4.13 114.21,-3.31 120.73,-2.62 127.22,-2.08 133.65,-1.68 140.01,-1.42 146.27,-1.31 152.41,-1.35 158.41,-1.53 164.26,-1.87 169.93,-2.35 175.41,-2.98 180.69,-3.75 185.76,-4.66 190.6,-5.71 195.2,-6.89 199.55,-8.21 203.65,-9.65 207.5,-11.21 211.08,-12.89 214.4,-14.67 217.45,-16.55 220.23,-18.53 222.74,-20.6 224.99,-22.74 226.98,-24.95 228.7,-27.23 230.16,-29.56 231.38,-31.94 232.34,-34.36 233.06,-36.8 233.54,-39.26 233.79,-41.74 233.81,-44.22 233.61,-46.69 233.19,-49.15 232.56,-51.59 231.72,-54 230.69,-56.38 229.46,-58.71 228.03,-61 226.42,-63.23 224.62,-65.39 222.64,-67.49 220.48,-69.52 218.15,-71.48 215.64,-73.35 212.96,-75.14 210.11,-76.84 207.09,-78.44 203.9,-79.96 200.55,-81.37 197.03,-82.69 193.35,-83.91 189.51,-85.03 185.51,-86.05 181.36,-86.96 177.05,-87.77 172.59,-88.48 167.99,-89.08 163.25,-89.59 158.38,-89.99 153.37,-90.28 148.25,-90.48 143.01,-90.58 137.67,-90.57 132.24,-90.47 126.73,-90.28 121.16,-89.98 115.52,-89.59 109.85,-89.11 104.15,-88.54 98.45,-87.88 92.75,-87.13 87.09,-86.29 81.47,-85.36 75.91,-84.35 70.45,-83.26 65.09,-82.08 59.85,-80.82 54.77,-79.49 49.86,-78.08 45.14,-76.6 40.63,-75.04 36.35,-73.41 32.33,-71.71 28.58,-69.95 25.12,-68.13 21.97,-66.24 19.14,-64.3 16.65,-62.31 14.52,-60.26 12.76,-58.17 11.38,-56.04 10.38,-53.87 9.78,-51.67 9.58,-49.44 9.78,-47.19 10.39,-44.92 11.41,-42.64 12.84,-40.36 14.66,-38.07 16.88,-35.8 19.49,-33.54 22.48,-31.3 25.84,-29.08 29.54,-26.91 33.59,-24.77 37.95,-22.69 42.62,-20.66 47.58,-18.7 52.79,-16.81 58.25,-15 63.92,-13.27 69.79,-11.64 75.83,-10.1 82.01,-8.67"/>
<text text-anchor="middle" x="130.16" y="-44.4" font-family="sans-serif" font-size="16.00">GestionPagos</text>
</g>
<!-- GestionAlquileres&#45;&gt;GestionPagos -->
<g id="edge2" class="edge">
<title>GestionAlquileres&#45;&gt;GestionPagos</title>
<path fill="none" stroke="black" stroke-width="2" d="M445.07,-158.71C409.93,-144.53 368.21,-128.15 330.16,-114.41 292.03,-100.64 249.37,-86.55 213.27,-75.01"/>
<text text-anchor="middle" x="437.66" y="-117.81" font-family="sans-serif" font-size="12.00"> &#160;&#160;&#160;&#160;&#160;&#160;&#160;&#160;&#160;&#160;&#160;&#160;&#160;&#160;&#160;&#160;&#160;&#160;&#160;&#160;&#160;&#160;&#160;&#160;&#160;&#160;&#160;&#160;&#160;&#160;&#160;&#160;&#160;&#160;&#160;&#160;&#160;&#160;&#160;</text>
<polygon fill="white" stroke="transparent" points="190.27,-65.01 190.27,-84.01 206.27,-84.01 206.27,-65.01 190.27,-65.01"/>
<polyline fill="none" stroke="black" points="206.27,-65.01 206.27,-84.01 "/>
<text text-anchor="start" x="193.27" y="-71.41" font-family="sans-serif" font-size="12.00">D</text>
<polygon fill="white" stroke="transparent" points="206.27,-65.01 206.27,-84.01 236.27,-84.01 236.27,-65.01 206.27,-65.01"/>
<polygon fill="none" stroke="black" points="206.27,-65.01 206.27,-84.01 236.27,-84.01 236.27,-65.01 206.27,-65.01"/>
<text text-anchor="start" x="209.27" y="-71.41" font-family="sans-serif" font-size="12.00">ACL</text>
<polygon fill="white" stroke="transparent" points="438.07,-149.71 438.07,-166.71 452.07,-166.71 452.07,-149.71 438.07,-149.71"/>
<text text-anchor="start" x="440.07" y="-155.11" font-family="sans-serif" font-size="12.00">U</text>
</g>
<!-- GestionClientes&#45;&gt;GestionAlquileres -->
<g id="edge3" class="edge">
<title>GestionClientes&#45;&gt;GestionAlquileres</title>
<path fill="none" stroke="black" stroke-width="2" d="M631.31,-68.48C668.46,-80.42 696.89,-99.06 678.16,-127.41 667.17,-144.05 650.95,-156.43 633.14,-165.64"/>
<text text-anchor="middle" x="758.66" y="-117.81" font-family="sans-serif" font-size="12.00"> &#160;&#160;&#160;&#160;&#160;&#160;&#160;&#160;&#160;&#160;&#160;&#160;&#160;&#160;&#160;&#160;&#160;&#160;&#160;&#160;&#160;&#160;&#160;&#160;&#160;&#160;&#160;&#160;&#160;&#160;&#160;&#160;&#160;&#160;&#160;&#160;&#160;&#160;&#160;</text>
<polygon fill="white" stroke="transparent" points="626.14,-156.64 626.14,-173.64 640.14,-173.64 640.14,-156.64 626.14,-156.64"/>
<text text-anchor="start" x="628.14" y="-162.04" font-family="sans-serif" font-size="12.00">D</text>
<polygon fill="white" stroke="transparent" points="624.31,-59.48 624.31,-76.48 638.31,-76.48 638.31,-59.48 624.31,-59.48"/>
<text text-anchor="start" x="626.31" y="-64.88" font-family="sans-serif" font-size="12.00">U</text>
</g>
<!-- GestionVehiculos -->
<g id="node4" class="node">
<title>GestionVehiculos</title>
<polygon fill="none" stroke="black" stroke-width="2" points="419.32,-314.05 424.04,-311.67 429.03,-309.38 434.26,-307.17 439.72,-305.07 445.38,-303.08 451.24,-301.21 457.26,-299.47 463.42,-297.86 469.71,-296.39 476.11,-295.07 482.6,-293.9 489.15,-292.89 495.74,-292.03 502.37,-291.34 509.01,-290.81 515.64,-290.44 522.24,-290.24 528.81,-290.21 535.32,-290.34 541.76,-290.62 548.11,-291.07 554.36,-291.68 560.5,-292.43 566.52,-293.33 572.41,-294.37 578.14,-295.54 583.72,-296.84 589.13,-298.27 594.37,-299.8 599.43,-301.44 604.29,-303.18 608.95,-305.01 613.4,-306.92 617.64,-308.9 621.66,-310.95 625.46,-313.05 629.01,-315.2 632.33,-317.39 635.41,-319.61 638.23,-321.85 640.8,-324.11 643.1,-326.37 645.14,-328.64 646.91,-330.91 648.4,-333.16 649.61,-335.4 650.54,-337.61 651.18,-339.8 651.52,-341.95 651.56,-344.07 651.31,-346.15 650.74,-348.18 649.88,-350.17 648.7,-352.11 647.21,-354 645.41,-355.83 643.3,-357.61 640.87,-359.34 638.13,-361 635.09,-362.61 631.73,-364.16 628.08,-365.65 624.12,-367.07 619.87,-368.44 615.33,-369.74 610.52,-370.98 605.43,-372.15 600.09,-373.26 594.49,-374.31 588.66,-375.28 582.61,-376.19 576.35,-377.03 569.9,-377.8 563.27,-378.49 556.49,-379.11 549.57,-379.65 542.53,-380.11 535.4,-380.49 528.19,-380.79 520.93,-381 513.65,-381.12 506.35,-381.15 499.08,-381.08 491.86,-380.92 484.7,-380.66 477.63,-380.29 470.69,-379.82 463.89,-379.24 457.25,-378.56 450.81,-377.76 444.58,-376.86 438.59,-375.84 432.87,-374.7 427.42,-373.46 422.27,-372.1 417.44,-370.63 412.95,-369.05 408.81,-367.36 405.03,-365.56 401.64,-363.67 398.64,-361.67 396.05,-359.58 393.86,-357.4 392.09,-355.13 390.75,-352.79 389.83,-350.38 389.33,-347.9 389.26,-345.37 389.62,-342.79 390.4,-340.18 391.59,-337.53 393.19,-334.86 395.18,-332.19 397.57,-329.51 400.33,-326.85 403.46,-324.2 406.94,-321.59 410.75,-319.02 414.89,-316.51 419.32,-314.05"/>
<text text-anchor="middle" x="526.16" y="-335.17" font-family="sans-serif" font-size="16.00">GestionVehiculos</text>
</g>
<!-- GestionVehiculos&#45;&gt;GestionAlquileres -->
<g id="edge4" class="edge">
<title>GestionVehiculos&#45;&gt;GestionAlquileres</title>
<path fill="none" stroke="black" stroke-width="2" d="M526.16,-290.11C526.16,-272.15 526.16,-251.92 526.16,-234.69"/>
<text text-anchor="middle" x="568.16" y="-262.49" font-family="sans-serif" font-size="12.00">Shared Kernel</text>
</g>
<!-- Seguridad -->
<g id="node5" class="node">
<title>Seguridad</title>
<polygon fill="none" stroke="black" stroke-width="2" points="179.07,-204.31 177.66,-207.09 176.01,-209.82 174.13,-212.49 172.03,-215.09 169.72,-217.61 167.19,-220.04 164.47,-222.37 161.56,-224.59 158.46,-226.69 155.2,-228.67 151.76,-230.51 148.18,-232.22 144.44,-233.78 140.58,-235.2 136.59,-236.46 132.49,-237.57 128.29,-238.52 124,-239.31 119.63,-239.94 115.19,-240.41 110.69,-240.72 106.15,-240.87 101.58,-240.87 96.99,-240.72 92.38,-240.43 87.78,-239.99 83.19,-239.41 78.62,-238.7 74.09,-237.86 69.6,-236.9 65.17,-235.83 60.81,-234.65 56.53,-233.38 52.33,-232 48.24,-230.55 44.26,-229.01 40.39,-227.41 36.66,-225.73 33.06,-224.01 29.62,-222.23 26.33,-220.4 23.2,-218.54 20.25,-216.65 17.49,-214.73 14.91,-212.78 12.53,-210.83 10.35,-208.86 8.38,-206.88 6.63,-204.9 5.1,-202.91 3.79,-200.94 2.72,-198.96 1.88,-197 1.28,-195.04 0.92,-193.1 0.8,-191.17 0.93,-189.25 1.3,-187.36 1.92,-185.48 2.78,-183.62 3.89,-181.78 5.24,-179.96 6.83,-178.17 8.65,-176.39 10.71,-174.65 13,-172.93 15.51,-171.24 18.24,-169.59 21.18,-167.96 24.32,-166.38 27.65,-164.83 31.17,-163.32 34.87,-161.85 38.74,-160.44 42.76,-159.08 46.92,-157.77 51.22,-156.53 55.64,-155.35 60.17,-154.24 64.8,-153.21 69.5,-152.25 74.27,-151.39 79.1,-150.61 83.97,-149.93 88.86,-149.35 93.77,-148.88 98.67,-148.52 103.55,-148.28 108.39,-148.16 113.19,-148.16 117.93,-148.29 122.59,-148.56 127.16,-148.96 131.63,-149.5 135.98,-150.19 140.2,-151.01 144.27,-151.97 148.19,-153.08 151.94,-154.33 155.52,-155.72 158.9,-157.25 162.09,-158.91 165.08,-160.7 167.85,-162.63 170.39,-164.67 172.71,-166.83 174.79,-169.09 176.63,-171.46 178.22,-173.92 179.57,-176.47 180.66,-179.09 181.5,-181.77 182.09,-184.51 182.41,-187.3 182.49,-190.12 182.3,-192.96 181.87,-195.81 181.18,-198.66 180.25,-201.5 179.07,-204.31"/>
<text text-anchor="middle" x="91.16" y="-189.45" font-family="sans-serif" font-size="16.00">Seguridad</text>
</g>
<!-- Seguridad&#45;&gt;GestionClientes -->
<g id="edge5" class="edge">
<title>Seguridad&#45;&gt;GestionClientes</title>
<path fill="none" stroke="black" stroke-width="2" d="M132.87,-149.54C148.81,-134.11 165.48,-119.27 175.16,-114.41 180.69,-111.63 316,-86.93 416.97,-68.75"/>
<text text-anchor="middle" x="250.66" y="-117.81" font-family="sans-serif" font-size="12.00"> &#160;&#160;&#160;&#160;&#160;&#160;&#160;&#160;&#160;&#160;&#160;&#160;&#160;&#160;&#160;&#160;&#160;&#160;&#160;&#160;&#160;&#160;&#160;&#160;&#160;&#160;&#160;&#160;&#160;&#160;&#160;&#160;&#160;&#160;&#160;&#160;&#160;&#160;&#160;</text>
<polygon fill="white" stroke="transparent" points="409.97,-59.75 409.97,-76.75 423.97,-76.75 423.97,-59.75 409.97,-59.75"/>
<text text-anchor="start" x="411.97" y="-65.15" font-family="sans-serif" font-size="12.00">D</text>
<polygon fill="white" stroke="transparent" points="108.87,-139.54 108.87,-158.54 124.87,-158.54 124.87,-139.54 108.87,-139.54"/>
<polyline fill="none" stroke="black" points="124.87,-139.54 124.87,-158.54 "/>
<text text-anchor="start" x="111.87" y="-145.94" font-family="sans-serif" font-size="12.00">U</text>
<polygon fill="white" stroke="transparent" points="124.87,-139.54 124.87,-158.54 157.87,-158.54 157.87,-139.54 124.87,-139.54"/>
<polygon fill="none" stroke="black" points="124.87,-139.54 124.87,-158.54 157.87,-158.54 157.87,-139.54 124.87,-139.54"/>
<text text-anchor="start" x="127.87" y="-145.94" font-family="sans-serif" font-size="12.00">OHS</text>
</g>
<!-- Seguridad&#45;&gt;GestionPagos -->
<g id="edge6" class="edge">
<title>Seguridad&#45;&gt;GestionPagos</title>
<path fill="none" stroke="black" stroke-width="2" d="M28.77,-164.2C8.34,-150.85 -6.48,-133.61 5.16,-114.41 14.81,-98.5 29.74,-86.29 45.97,-76.99"/>
<text text-anchor="middle" x="80.66" y="-117.81" font-family="sans-serif" font-size="12.00"> &#160;&#160;&#160;&#160;&#160;&#160;&#160;&#160;&#160;&#160;&#160;&#160;&#160;&#160;&#160;&#160;&#160;&#160;&#160;&#160;&#160;&#160;&#160;&#160;&#160;&#160;&#160;&#160;&#160;&#160;&#160;&#160;&#160;&#160;&#160;&#160;&#160;&#160;&#160;</text>
<polygon fill="white" stroke="transparent" points="38.97,-67.99 38.97,-84.99 52.97,-84.99 52.97,-67.99 38.97,-67.99"/>
<text text-anchor="start" x="40.97" y="-73.39" font-family="sans-serif" font-size="12.00">D</text>
<polygon fill="white" stroke="transparent" points="4.77,-154.2 4.77,-173.2 20.77,-173.2 20.77,-154.2 4.77,-154.2"/>
<polyline fill="none" stroke="black" points="20.77,-154.2 20.77,-173.2 "/>
<text text-anchor="start" x="7.77" y="-160.6" font-family="sans-serif" font-size="12.00">U</text>
<polygon fill="white" stroke="transparent" points="20.77,-154.2 20.77,-173.2 53.77,-173.2 53.77,-154.2 20.77,-154.2"/>
<polygon fill="none" stroke="black" points="20.77,-154.2 20.77,-173.2 53.77,-173.2 53.77,-154.2 20.77,-154.2"/>
<text text-anchor="start" x="23.77" y="-160.6" font-family="sans-serif" font-size="12.00">OHS</text>
</g>
</g>
</svg>
