<svg width="2000px" height="465px"
 viewBox="0.00 0.00 1072.46 248.87" xmlns="http://www.w3.org/2000/svg" xmlns:xlink="http://www.w3.org/1999/xlink">
<g id="graph0" class="graph" transform="scale(1.0 1.0) rotate(0) translate(4 244.87)">
<title>ContextMapGraph</title>
<polygon fill="white" stroke="transparent" points="-4,4 -4,-244.87 1068.46,-244.87 1068.46,4 -4,4"/>
<!-- GestionAlquileres -->
<g id="node1" class="node">
<title>GestionAlquileres</title>
<polygon fill="none" stroke="black" stroke-width="2" points="232.61,-225.12 226.3,-223.18 220.28,-221.15 214.57,-219.06 209.21,-216.91 204.2,-214.71 199.58,-212.47 195.37,-210.19 191.57,-207.88 188.21,-205.55 185.3,-203.21 182.86,-200.86 180.89,-198.52 179.39,-196.18 178.39,-193.87 177.87,-191.57 177.84,-189.3 178.29,-187.07 179.23,-184.87 180.64,-182.72 182.52,-180.62 184.86,-178.57 187.64,-176.58 190.85,-174.65 194.47,-172.78 198.49,-170.98 202.88,-169.25 207.62,-167.59 212.7,-166.01 218.09,-164.5 223.75,-163.07 229.68,-161.73 235.84,-160.46 242.21,-159.27 248.77,-158.17 255.47,-157.15 262.31,-156.21 269.25,-155.36 276.27,-154.59 283.34,-153.92 290.44,-153.33 297.55,-152.82 304.64,-152.41 311.7,-152.08 318.69,-151.85 325.61,-151.7 332.44,-151.65 339.15,-151.69 345.74,-151.82 352.18,-152.04 358.47,-152.36 364.59,-152.77 370.54,-153.27 376.3,-153.87 381.87,-154.57 387.23,-155.36 392.39,-156.25 397.34,-157.23 402.07,-158.31 406.58,-159.49 410.86,-160.76 414.92,-162.12 418.76,-163.57 422.36,-165.11 425.74,-166.74 428.88,-168.46 431.79,-170.26 434.47,-172.14 436.91,-174.1 439.12,-176.13 441.09,-178.22 442.83,-180.39 444.32,-182.6 445.57,-184.88 446.58,-187.2 447.34,-189.55 447.85,-191.95 448.11,-194.37 448.1,-196.81 447.84,-199.26 447.31,-201.71 446.51,-204.16 445.44,-206.6 444.1,-209.01 442.46,-211.4 440.55,-213.74 438.35,-216.04 435.85,-218.28 433.06,-220.46 429.97,-222.57 426.59,-224.59 422.91,-226.53 418.94,-228.37 414.67,-230.1 410.11,-231.72 405.26,-233.23 400.14,-234.61 394.74,-235.86 389.07,-236.97 383.15,-237.95 376.98,-238.79 370.58,-239.47 363.97,-240.01 357.15,-240.4 350.16,-240.63 343,-240.72 335.7,-240.65 328.27,-240.42 320.75,-240.05 313.16,-239.53 305.52,-238.86 297.85,-238.05 290.2,-237.1 282.58,-236.01 275.02,-234.8 267.55,-233.46 260.21,-232 253.01,-230.43 245.99,-228.76 239.18,-226.99 232.61,-225.12"/>
<text text-anchor="middle" x="323.46" y="-189.59" font-family="sans-serif" font-size="16.00">GestionAlquileres</text>
</g>
<!-- GestionPagos -->
<g id="node2" class="node">
<title>GestionPagos</title>
<polygon fill="none" stroke="black" stroke-width="2" points="870.35,-82.5 864.92,-84.36 859.35,-86.11 853.63,-87.75 847.81,-89.27 841.89,-90.66 835.91,-91.92 829.88,-93.04 823.82,-94.02 817.76,-94.85 811.71,-95.53 805.7,-96.06 799.73,-96.42 793.84,-96.63 788.04,-96.69 782.34,-96.58 776.76,-96.31 771.31,-95.88 766.01,-95.31 760.86,-94.57 755.89,-93.69 751.08,-92.66 746.47,-91.5 742.04,-90.2 737.82,-88.76 733.8,-87.21 729.99,-85.54 726.39,-83.76 723.01,-81.88 719.84,-79.91 716.9,-77.85 714.18,-75.72 711.68,-73.52 709.4,-71.26 707.35,-68.94 705.51,-66.59 703.9,-64.21 702.51,-61.8 701.33,-59.37 700.38,-56.94 699.64,-54.51 699.12,-52.09 698.81,-49.68 698.72,-47.3 698.85,-44.95 699.19,-42.63 699.74,-40.36 700.51,-38.14 701.49,-35.97 702.69,-33.85 704.1,-31.8 705.73,-29.82 707.57,-27.91 709.63,-26.07 711.9,-24.3 714.38,-22.62 717.09,-21.01 720,-19.49 723.13,-18.05 726.47,-16.7 730.02,-15.43 733.77,-14.25 737.73,-13.15 741.89,-12.15 746.24,-11.22 750.78,-10.39 755.49,-9.64 760.39,-8.98 765.44,-8.41 770.65,-7.93 776.01,-7.53 781.5,-7.22 787.1,-6.99 792.82,-6.86 798.62,-6.81 804.49,-6.84 810.43,-6.97 816.4,-7.18 822.4,-7.48 828.4,-7.86 834.38,-8.34 840.32,-8.9 846.2,-9.56 852.01,-10.3 857.71,-11.13 863.28,-12.06 868.71,-13.07 873.98,-14.17 879.05,-15.37 883.92,-16.65 888.55,-18.02 892.94,-19.48 897.06,-21.02 900.9,-22.65 904.43,-24.37 907.64,-26.16 910.52,-28.03 913.05,-29.98 915.22,-32 917.03,-34.08 918.46,-36.23 919.51,-38.44 920.17,-40.7 920.44,-43.01 920.31,-45.37 919.79,-47.75 918.89,-50.17 917.59,-52.61 915.92,-55.06 913.87,-57.52 911.45,-59.97 908.69,-62.42 905.58,-64.85 902.15,-67.24 898.4,-69.6 894.36,-71.92 890.04,-74.18 885.45,-76.38 880.63,-78.5 875.59,-80.55 870.35,-82.5"/>
<text text-anchor="middle" x="801.46" y="-44.65" font-family="sans-serif" font-size="16.00">GestionPagos</text>
</g>
<!-- GestionAlquileres&#45;&gt;GestionPagos -->
<g id="edge1" class="edge">
<title>GestionAlquileres&#45;&gt;GestionPagos</title>
<path fill="none" stroke="black" stroke-width="2" d="M424.59,-166.04C463.87,-155.16 509.05,-141.83 549.46,-127.9 563.97,-122.9 566.97,-119.99 581.46,-114.9 623.94,-99.99 671.79,-85.49 711.98,-73.95"/>
<text text-anchor="middle" x="656.96" y="-118.3" font-family="sans-serif" font-size="12.00"> &#160;&#160;&#160;&#160;&#160;&#160;&#160;&#160;&#160;&#160;&#160;&#160;&#160;&#160;&#160;&#160;&#160;&#160;&#160;&#160;&#160;&#160;&#160;&#160;&#160;&#160;&#160;&#160;&#160;&#160;&#160;&#160;&#160;&#160;&#160;&#160;&#160;&#160;&#160;</text>
<polygon fill="white" stroke="transparent" points="688.98,-63.95 688.98,-82.95 704.98,-82.95 704.98,-63.95 688.98,-63.95"/>
<polyline fill="none" stroke="black" points="704.98,-63.95 704.98,-82.95 "/>
<text text-anchor="start" x="691.98" y="-70.35" font-family="sans-serif" font-size="12.00">D</text>
<polygon fill="white" stroke="transparent" points="704.98,-63.95 704.98,-82.95 734.98,-82.95 734.98,-63.95 704.98,-63.95"/>
<polygon fill="none" stroke="black" points="704.98,-63.95 704.98,-82.95 734.98,-82.95 734.98,-63.95 704.98,-63.95"/>
<text text-anchor="start" x="707.98" y="-70.35" font-family="sans-serif" font-size="12.00">ACL</text>
<polygon fill="white" stroke="transparent" points="417.59,-157.04 417.59,-174.04 431.59,-174.04 431.59,-157.04 417.59,-157.04"/>
<text text-anchor="start" x="419.59" y="-162.44" font-family="sans-serif" font-size="12.00">U</text>
</g>
<!-- GestionClientes -->
<g id="node3" class="node">
<title>GestionClientes</title>
<polygon fill="none" stroke="black" stroke-width="2" points="297.87,-32.26 300.68,-29.58 303.79,-26.96 307.17,-24.42 310.83,-21.95 314.74,-19.58 318.9,-17.31 323.28,-15.15 327.89,-13.11 332.69,-11.2 337.68,-9.42 342.85,-7.79 348.17,-6.3 353.63,-4.96 359.22,-3.78 364.92,-2.76 370.72,-1.9 376.6,-1.2 382.55,-0.67 388.54,-0.3 394.57,-0.09 400.62,-0.05 406.68,-0.16 412.73,-0.43 418.76,-0.85 424.75,-1.42 430.7,-2.13 436.58,-2.97 442.38,-3.95 448.09,-5.05 453.71,-6.26 459.21,-7.59 464.58,-9.02 469.81,-10.55 474.9,-12.16 479.82,-13.85 484.58,-15.61 489.15,-17.44 493.52,-19.32 497.7,-21.25 501.66,-23.23 505.39,-25.24 508.9,-27.27 512.16,-29.33 515.18,-31.41 517.93,-33.49 520.43,-35.58 522.64,-37.67 524.58,-39.76 526.23,-41.83 527.59,-43.89 528.64,-45.94 529.4,-47.97 529.85,-49.98 529.98,-51.96 529.8,-53.91 529.31,-55.84 528.5,-57.74 527.36,-59.61 525.91,-61.44 524.14,-63.24 522.06,-65.01 519.66,-66.74 516.95,-68.43 513.93,-70.08 510.62,-71.7 507.02,-73.27 503.12,-74.81 498.96,-76.3 494.52,-77.74 489.83,-79.14 484.89,-80.48 479.73,-81.78 474.34,-83.02 468.75,-84.2 462.97,-85.32 457.02,-86.37 450.91,-87.36 444.67,-88.27 438.3,-89.11 431.83,-89.86 425.29,-90.54 418.68,-91.12 412.03,-91.61 405.36,-92 398.69,-92.28 392.04,-92.46 385.44,-92.53 378.9,-92.49 372.45,-92.32 366.1,-92.04 359.87,-91.62 353.8,-91.08 347.89,-90.42 342.16,-89.61 336.64,-88.68 331.33,-87.61 326.27,-86.41 321.46,-85.08 316.91,-83.61 312.65,-82.02 308.69,-80.3 305.03,-78.46 301.68,-76.5 298.67,-74.42 295.99,-72.24 293.65,-69.95 291.67,-67.58 290.03,-65.11 288.75,-62.57 287.83,-59.95 287.27,-57.28 287.06,-54.56 287.21,-51.79 287.72,-49 288.57,-46.19 289.77,-43.37 291.31,-40.56 293.18,-37.76 295.37,-34.99 297.87,-32.26"/>
<text text-anchor="middle" x="410.46" y="-44.65" font-family="sans-serif" font-size="16.00">GestionClientes</text>
</g>
<!-- GestionAlquileres&#45;&gt;GestionClientes -->
<g id="edge2" class="edge">
<title>GestionAlquileres&#45;&gt;GestionClientes</title>
<path fill="none" stroke="black" stroke-width="2" d="M251.32,-157.63C235.65,-145.33 226.6,-130.61 237.46,-114.9 242.5,-107.6 275.42,-94.41 311.21,-81.77"/>
<text text-anchor="middle" x="312.96" y="-118.3" font-family="sans-serif" font-size="12.00"> &#160;&#160;&#160;&#160;&#160;&#160;&#160;&#160;&#160;&#160;&#160;&#160;&#160;&#160;&#160;&#160;&#160;&#160;&#160;&#160;&#160;&#160;&#160;&#160;&#160;&#160;&#160;&#160;&#160;&#160;&#160;&#160;&#160;&#160;&#160;&#160;&#160;&#160;&#160;</text>
<polygon fill="white" stroke="transparent" points="304.21,-72.77 304.21,-89.77 318.21,-89.77 318.21,-72.77 304.21,-72.77"/>
<text text-anchor="start" x="306.21" y="-78.17" font-family="sans-serif" font-size="12.00">D</text>
<polygon fill="white" stroke="transparent" points="244.32,-148.63 244.32,-165.63 258.32,-165.63 258.32,-148.63 244.32,-148.63"/>
<text text-anchor="start" x="246.32" y="-154.03" font-family="sans-serif" font-size="12.00">U</text>
</g>
<!-- GestionVehiculos -->
<g id="node4" class="node">
<title>GestionVehiculos</title>
<polygon fill="none" stroke="black" stroke-width="2" points="258.21,-53.51 257.36,-56.36 256.15,-59.17 254.6,-61.94 252.71,-64.66 250.48,-67.31 247.92,-69.89 245.03,-72.37 241.83,-74.77 238.32,-77.06 234.52,-79.24 230.43,-81.3 226.07,-83.23 221.44,-85.02 216.57,-86.68 211.45,-88.2 206.11,-89.57 200.57,-90.79 194.83,-91.86 188.92,-92.78 182.84,-93.54 176.62,-94.15 170.27,-94.61 163.81,-94.92 157.26,-95.08 150.63,-95.09 143.94,-94.96 137.22,-94.7 130.47,-94.3 123.72,-93.78 116.99,-93.13 110.29,-92.37 103.64,-91.49 97.07,-90.51 90.58,-89.44 84.2,-88.27 77.93,-87.02 71.81,-85.68 65.85,-84.28 60.06,-82.81 54.45,-81.28 49.05,-79.69 43.87,-78.06 38.92,-76.38 34.22,-74.66 29.78,-72.91 25.61,-71.13 21.72,-69.33 18.12,-67.5 14.83,-65.65 11.85,-63.79 9.19,-61.92 6.86,-60.04 4.86,-58.15 3.21,-56.25 1.9,-54.35 0.94,-52.45 0.33,-50.54 0.07,-48.64 0.17,-46.74 0.62,-44.84 1.43,-42.94 2.59,-41.05 4.09,-39.17 5.94,-37.29 8.13,-35.43 10.66,-33.57 13.51,-31.73 16.68,-29.91 20.16,-28.1 23.94,-26.32 28.01,-24.56 32.37,-22.83 36.99,-21.13 41.87,-19.47 46.99,-17.86 52.33,-16.28 57.89,-14.76 63.65,-13.3 69.59,-11.9 75.7,-10.56 81.95,-9.3 88.34,-8.13 94.84,-7.03 101.44,-6.03 108.11,-5.13 114.84,-4.34 121.62,-3.65 128.41,-3.09 135.21,-2.64 141.99,-2.32 148.74,-2.14 155.44,-2.09 162.06,-2.18 168.59,-2.42 175.02,-2.8 181.31,-3.33 187.47,-4.02 193.46,-4.85 199.28,-5.84 204.9,-6.97 210.32,-8.26 215.51,-9.69 220.46,-11.27 225.17,-12.98 229.6,-14.84 233.77,-16.82 237.64,-18.92 241.22,-21.14 244.48,-23.47 247.43,-25.9 250.06,-28.43 252.35,-31.03 254.31,-33.71 255.92,-36.44 257.18,-39.23 258.1,-42.06 258.66,-44.91 258.87,-47.78 258.72,-50.65 258.21,-53.51"/>
<text text-anchor="middle" x="129.46" y="-44.65" font-family="sans-serif" font-size="16.00">GestionVehiculos</text>
</g>
<!-- GestionAlquileres&#45;&gt;GestionVehiculos -->
<g id="edge3" class="edge">
<title>GestionAlquileres&#45;&gt;GestionVehiculos</title>
<path fill="none" stroke="black" stroke-width="2" d="M204.66,-168.48C182.35,-159.11 161.14,-146.06 145.46,-127.9 137.46,-118.64 133.07,-106.48 130.75,-94.5"/>
<text text-anchor="middle" x="187.46" y="-118.3" font-family="sans-serif" font-size="12.00">Shared Kernel</text>
</g>
<!-- GestionClientes&#45;&gt;GestionAlquileres -->
<g id="edge4" class="edge">
<title>GestionClientes&#45;&gt;GestionAlquileres</title>
<path fill="none" stroke="black" stroke-width="2" d="M402.73,-92.19C399.44,-104.26 394.83,-117.05 388.46,-127.9 383.22,-136.81 376.45,-145.35 369.27,-153.14"/>
<text text-anchor="middle" x="469.96" y="-118.3" font-family="sans-serif" font-size="12.00"> &#160;&#160;&#160;&#160;&#160;&#160;&#160;&#160;&#160;&#160;&#160;&#160;&#160;&#160;&#160;&#160;&#160;&#160;&#160;&#160;&#160;&#160;&#160;&#160;&#160;&#160;&#160;&#160;&#160;&#160;&#160;&#160;&#160;&#160;&#160;&#160;&#160;&#160;&#160;</text>
<polygon fill="white" stroke="transparent" points="362.27,-144.14 362.27,-161.14 376.27,-161.14 376.27,-144.14 362.27,-144.14"/>
<text text-anchor="start" x="364.27" y="-149.54" font-family="sans-serif" font-size="12.00">D</text>
<polygon fill="white" stroke="transparent" points="395.73,-83.19 395.73,-100.19 409.73,-100.19 409.73,-83.19 395.73,-83.19"/>
<text text-anchor="start" x="397.73" y="-88.59" font-family="sans-serif" font-size="12.00">U</text>
</g>
<!-- Seguridad -->
<g id="node5" class="node">
<title>Seguridad</title>
<polygon fill="none" stroke="black" stroke-width="2" points="754.93,-193.66 754.81,-190.79 754.93,-187.94 755.31,-185.12 755.94,-182.33 756.82,-179.6 757.94,-176.93 759.31,-174.33 760.93,-171.81 762.78,-169.39 764.87,-167.06 767.18,-164.84 769.72,-162.74 772.48,-160.76 775.44,-158.9 778.6,-157.18 781.95,-155.59 785.49,-154.15 789.2,-152.85 793.07,-151.69 797.08,-150.68 801.24,-149.81 805.53,-149.1 809.93,-148.52 814.43,-148.09 819.02,-147.81 823.69,-147.66 828.42,-147.64 833.19,-147.76 838,-148 842.83,-148.37 847.67,-148.86 852.5,-149.45 857.3,-150.15 862.07,-150.96 866.79,-151.86 871.44,-152.85 876.02,-153.92 880.51,-155.08 884.9,-156.3 889.17,-157.6 893.31,-158.95 897.31,-160.37 901.17,-161.83 904.86,-163.35 908.38,-164.91 911.72,-166.51 914.87,-168.15 917.82,-169.82 920.57,-171.52 923.1,-173.25 925.42,-175 927.51,-176.78 929.37,-178.58 931,-180.4 932.38,-182.24 933.53,-184.1 934.43,-185.97 935.09,-187.86 935.5,-189.75 935.67,-191.67 935.58,-193.59 935.26,-195.52 934.69,-197.46 933.88,-199.4 932.83,-201.35 931.55,-203.3 930.04,-205.25 928.3,-207.2 926.34,-209.14 924.17,-211.07 921.79,-212.99 919.21,-214.89 916.43,-216.78 913.47,-218.63 910.33,-220.45 907.02,-222.24 903.55,-223.99 899.93,-225.68 896.16,-227.32 892.27,-228.9 888.25,-230.42 884.12,-231.85 879.89,-233.21 875.57,-234.48 871.17,-235.65 866.7,-236.72 862.18,-237.68 857.61,-238.53 853.01,-239.25 848.39,-239.85 843.76,-240.31 839.13,-240.64 834.52,-240.82 829.93,-240.85 825.38,-240.74 820.88,-240.47 816.44,-240.04 812.08,-239.46 807.8,-238.71 803.61,-237.81 799.54,-236.76 795.58,-235.54 791.75,-234.18 788.05,-232.66 784.51,-231 781.13,-229.2 777.91,-227.26 774.87,-225.2 772.02,-223.01 769.36,-220.71 766.91,-218.31 764.66,-215.81 762.63,-213.23 760.82,-210.57 759.25,-207.84 757.9,-205.07 756.79,-202.25 755.93,-199.4 755.3,-196.53 754.93,-193.66"/>
<text text-anchor="middle" x="845.46" y="-189.59" font-family="sans-serif" font-size="16.00">Seguridad</text>
</g>
<!-- Seguridad&#45;&gt;GestionPagos -->
<g id="edge6" class="edge">
<title>Seguridad&#45;&gt;GestionPagos</title>
<path fill="none" stroke="black" stroke-width="2" d="M896.5,-159.68C910.41,-146.56 919.45,-130.8 910.46,-114.9 902.46,-100.78 890.08,-89.38 876.48,-80.29"/>
<text text-anchor="middle" x="988.96" y="-118.3" font-family="sans-serif" font-size="12.00"> &#160;&#160;&#160;&#160;&#160;&#160;&#160;&#160;&#160;&#160;&#160;&#160;&#160;&#160;&#160;&#160;&#160;&#160;&#160;&#160;&#160;&#160;&#160;&#160;&#160;&#160;&#160;&#160;&#160;&#160;&#160;&#160;&#160;&#160;&#160;&#160;&#160;&#160;&#160;</text>
<polygon fill="white" stroke="transparent" points="869.48,-71.29 869.48,-88.29 883.48,-88.29 883.48,-71.29 869.48,-71.29"/>
<text text-anchor="start" x="871.48" y="-76.69" font-family="sans-serif" font-size="12.00">D</text>
<polygon fill="white" stroke="transparent" points="872.5,-149.68 872.5,-168.68 888.5,-168.68 888.5,-149.68 872.5,-149.68"/>
<polyline fill="none" stroke="black" points="888.5,-149.68 888.5,-168.68 "/>
<text text-anchor="start" x="875.5" y="-156.08" font-family="sans-serif" font-size="12.00">U</text>
<polygon fill="white" stroke="transparent" points="888.5,-149.68 888.5,-168.68 921.5,-168.68 921.5,-149.68 888.5,-149.68"/>
<polygon fill="none" stroke="black" points="888.5,-149.68 888.5,-168.68 921.5,-168.68 921.5,-149.68 888.5,-149.68"/>
<text text-anchor="start" x="891.5" y="-156.08" font-family="sans-serif" font-size="12.00">OHS</text>
</g>
<!-- Seguridad&#45;&gt;GestionClientes -->
<g id="edge5" class="edge">
<title>Seguridad&#45;&gt;GestionClientes</title>
<path fill="none" stroke="black" stroke-width="2" d="M789.72,-152.4C763.73,-133.82 738.11,-115.62 736.46,-114.9 716.22,-106.16 604.07,-84.54 516.89,-68.53"/>
<text text-anchor="middle" x="828.96" y="-118.3" font-family="sans-serif" font-size="12.00"> &#160;&#160;&#160;&#160;&#160;&#160;&#160;&#160;&#160;&#160;&#160;&#160;&#160;&#160;&#160;&#160;&#160;&#160;&#160;&#160;&#160;&#160;&#160;&#160;&#160;&#160;&#160;&#160;&#160;&#160;&#160;&#160;&#160;&#160;&#160;&#160;&#160;&#160;&#160;</text>
<polygon fill="white" stroke="transparent" points="509.89,-59.53 509.89,-76.53 523.89,-76.53 523.89,-59.53 509.89,-59.53"/>
<text text-anchor="start" x="511.89" y="-64.93" font-family="sans-serif" font-size="12.00">D</text>
<polygon fill="white" stroke="transparent" points="765.72,-142.4 765.72,-161.4 781.72,-161.4 781.72,-142.4 765.72,-142.4"/>
<polyline fill="none" stroke="black" points="781.72,-142.4 781.72,-161.4 "/>
<text text-anchor="start" x="768.72" y="-148.8" font-family="sans-serif" font-size="12.00">U</text>
<polygon fill="white" stroke="transparent" points="781.72,-142.4 781.72,-161.4 814.72,-161.4 814.72,-142.4 781.72,-142.4"/>
<polygon fill="none" stroke="black" points="781.72,-142.4 781.72,-161.4 814.72,-161.4 814.72,-142.4 781.72,-142.4"/>
<text text-anchor="start" x="784.72" y="-148.8" font-family="sans-serif" font-size="12.00">OHS</text>
</g>
</g>
</svg>
