<svg width="2000px" height="1244px"
 viewBox="0.00 0.00 639.52 397.73" xmlns="http://www.w3.org/2000/svg" xmlns:xlink="http://www.w3.org/1999/xlink">
<g id="graph0" class="graph" transform="scale(1.0 1.0) rotate(0) translate(4 393.73)">
<title>ContextMapGraph</title>
<polygon fill="white" stroke="transparent" points="-4,4 -4,-393.73 635.52,-393.73 635.52,4 -4,4"/>
<!-- GestionAlquileres -->
<g id="node1" class="node">
<title>GestionAlquileres</title>
<polygon fill="none" stroke="black" stroke-width="2" points="164.58,-212.63 161.05,-210.02 157.87,-207.38 155.07,-204.71 152.65,-202.04 150.62,-199.36 149,-196.7 147.79,-194.05 147,-191.43 146.64,-188.85 146.71,-186.32 147.21,-183.85 148.15,-181.43 149.51,-179.09 151.31,-176.83 153.52,-174.65 156.16,-172.56 159.2,-170.56 162.64,-168.66 166.47,-166.87 170.67,-165.18 175.22,-163.6 180.12,-162.13 185.35,-160.77 190.87,-159.52 196.69,-158.39 202.76,-157.37 209.08,-156.46 215.62,-155.67 222.35,-154.98 229.25,-154.41 236.29,-153.94 243.46,-153.57 250.72,-153.31 258.05,-153.14 265.43,-153.08 272.82,-153.11 280.22,-153.23 287.58,-153.44 294.89,-153.73 302.13,-154.11 309.27,-154.58 316.29,-155.12 323.17,-155.74 329.89,-156.43 336.44,-157.2 342.79,-158.04 348.93,-158.94 354.84,-159.92 360.52,-160.96 365.94,-162.07 371.1,-163.25 375.98,-164.49 380.59,-165.79 384.9,-167.15 388.91,-168.58 392.62,-170.07 396.02,-171.62 399.12,-173.22 401.89,-174.89 404.35,-176.61 406.5,-178.39 408.32,-180.23 409.83,-182.12 411.03,-184.06 411.91,-186.05 412.48,-188.08 412.74,-190.16 412.69,-192.28 412.35,-194.43 411.7,-196.62 410.76,-198.83 409.53,-201.07 408.02,-203.32 406.23,-205.58 404.16,-207.85 401.82,-210.12 399.21,-212.38 396.35,-214.62 393.23,-216.84 389.86,-219.03 386.25,-221.18 382.41,-223.28 378.33,-225.33 374.03,-227.31 369.51,-229.22 364.78,-231.05 359.85,-232.78 354.72,-234.43 349.41,-235.96 343.92,-237.38 338.25,-238.68 332.44,-239.86 326.47,-240.9 320.36,-241.8 314.13,-242.55 307.79,-243.15 301.34,-243.6 294.81,-243.89 288.21,-244.02 281.55,-243.98 274.85,-243.79 268.12,-243.42 261.39,-242.89 254.66,-242.2 247.97,-241.34 241.33,-240.33 234.75,-239.16 228.26,-237.83 221.88,-236.37 215.62,-234.76 209.51,-233.01 203.58,-231.14 197.83,-229.15 192.29,-227.05 186.98,-224.85 181.92,-222.55 177.14,-220.17 172.64,-217.72 168.44,-215.2 164.58,-212.63"/>
<text text-anchor="middle" x="285.52" y="-191.46" font-family="sans-serif" font-size="16.00">GestionAlquileres</text>
</g>
<!-- GestionPagos -->
<g id="node2" class="node">
<title>GestionPagos</title>
<polygon fill="none" stroke="black" stroke-width="2" points="6.47,-59.63 4.61,-56.84 3.06,-54.05 1.81,-51.26 0.88,-48.47 0.26,-45.7 -0.02,-42.97 0.02,-40.27 0.39,-37.63 1.1,-35.05 2.13,-32.54 3.5,-30.1 5.19,-27.75 7.21,-25.5 9.54,-23.34 12.19,-21.29 15.14,-19.35 18.39,-17.52 21.92,-15.82 25.72,-14.23 29.79,-12.78 34.11,-11.44 38.66,-10.24 43.43,-9.16 48.41,-8.21 53.57,-7.39 58.91,-6.69 64.39,-6.12 70.01,-5.68 75.75,-5.35 81.58,-5.13 87.49,-5.04 93.46,-5.05 99.47,-5.17 105.49,-5.39 111.51,-5.71 117.52,-6.13 123.48,-6.63 129.38,-7.23 135.21,-7.9 140.95,-8.66 146.57,-9.5 152.07,-10.4 157.43,-11.38 162.62,-12.42 167.65,-13.52 172.48,-14.69 177.12,-15.91 181.56,-17.19 185.76,-18.53 189.74,-19.91 193.48,-21.35 196.98,-22.84 200.21,-24.37 203.19,-25.96 205.9,-27.59 208.34,-29.26 210.51,-30.98 212.4,-32.74 214.01,-34.54 215.34,-36.38 216.4,-38.26 217.17,-40.18 217.67,-42.14 217.89,-44.13 217.84,-46.15 217.51,-48.2 216.92,-50.28 216.06,-52.38 214.95,-54.51 213.58,-56.65 211.96,-58.8 210.09,-60.96 207.99,-63.12 205.65,-65.27 203.09,-67.42 200.31,-69.55 197.32,-71.66 194.13,-73.74 190.73,-75.78 187.15,-77.78 183.38,-79.73 179.44,-81.62 175.33,-83.44 171.07,-85.18 166.66,-86.84 162.1,-88.41 157.42,-89.88 152.62,-91.24 147.7,-92.49 142.69,-93.62 137.58,-94.62 132.4,-95.48 127.14,-96.2 121.83,-96.77 116.48,-97.19 111.08,-97.46 105.67,-97.57 100.25,-97.52 94.83,-97.3 89.43,-96.91 84.06,-96.36 78.73,-95.65 73.46,-94.77 68.27,-93.73 63.16,-92.53 58.15,-91.17 53.25,-89.66 48.49,-88.01 43.87,-86.21 39.41,-84.29 35.12,-82.24 31.01,-80.06 27.11,-77.79 23.42,-75.41 19.96,-72.94 16.74,-70.39 13.76,-67.78 11.06,-65.1 8.62,-62.38 6.47,-59.63"/>
<text text-anchor="middle" x="111.52" y="-44.89" font-family="sans-serif" font-size="16.00">GestionPagos</text>
</g>
<!-- GestionAlquileres&#45;&gt;GestionPagos -->
<g id="edge1" class="edge">
<title>GestionAlquileres&#45;&gt;GestionPagos</title>
<path fill="none" stroke="black" stroke-width="2" d="M172.95,-164.33C155.32,-155.28 138.88,-143.56 126.52,-128.38 119.41,-119.64 115.3,-108.56 113,-97.48"/>
<text text-anchor="middle" x="202.02" y="-118.78" font-family="sans-serif" font-size="12.00"> &#160;&#160;&#160;&#160;&#160;&#160;&#160;&#160;&#160;&#160;&#160;&#160;&#160;&#160;&#160;&#160;&#160;&#160;&#160;&#160;&#160;&#160;&#160;&#160;&#160;&#160;&#160;&#160;&#160;&#160;&#160;&#160;&#160;&#160;&#160;&#160;&#160;&#160;&#160;</text>
<polygon fill="white" stroke="transparent" points="90,-87.48 90,-106.48 106,-106.48 106,-87.48 90,-87.48"/>
<polyline fill="none" stroke="black" points="106,-87.48 106,-106.48 "/>
<text text-anchor="start" x="93" y="-93.88" font-family="sans-serif" font-size="12.00">D</text>
<polygon fill="white" stroke="transparent" points="106,-87.48 106,-106.48 136,-106.48 136,-87.48 106,-87.48"/>
<polygon fill="none" stroke="black" points="106,-87.48 106,-106.48 136,-106.48 136,-87.48 106,-87.48"/>
<text text-anchor="start" x="109" y="-93.88" font-family="sans-serif" font-size="12.00">ACL</text>
<polygon fill="white" stroke="transparent" points="165.95,-155.33 165.95,-172.33 179.95,-172.33 179.95,-155.33 165.95,-155.33"/>
<text text-anchor="start" x="167.95" y="-160.73" font-family="sans-serif" font-size="12.00">U</text>
</g>
<!-- GestionClientes -->
<g id="node3" class="node">
<title>GestionClientes</title>
<polygon fill="none" stroke="black" stroke-width="2" points="530.27,-38.51 532.21,-41.3 533.82,-44.1 535.08,-46.9 535.98,-49.69 536.53,-52.46 536.72,-55.2 536.54,-57.89 536,-60.52 535.09,-63.1 533.82,-65.6 532.17,-68.02 530.17,-70.36 527.81,-72.6 525.11,-74.73 522.05,-76.76 518.67,-78.68 514.96,-80.48 510.94,-82.16 506.61,-83.71 502.01,-85.14 497.12,-86.44 491.99,-87.61 486.61,-88.66 481.01,-89.57 475.21,-90.35 469.22,-91.01 463.07,-91.54 456.78,-91.95 450.36,-92.24 443.84,-92.41 437.24,-92.46 430.59,-92.41 423.89,-92.25 417.18,-91.98 410.47,-91.62 403.8,-91.16 397.17,-90.61 390.6,-89.98 384.13,-89.26 377.77,-88.46 371.53,-87.59 365.44,-86.65 359.51,-85.63 353.76,-84.56 348.21,-83.42 342.87,-82.22 337.75,-80.96 332.86,-79.65 328.23,-78.29 323.86,-76.88 319.75,-75.41 315.93,-73.9 312.39,-72.35 309.14,-70.75 306.19,-69.1 303.55,-67.41 301.22,-65.68 299.19,-63.91 297.48,-62.1 296.08,-60.25 294.99,-58.36 294.22,-56.44 293.76,-54.48 293.61,-52.49 293.76,-50.47 294.23,-48.42 294.99,-46.35 296.04,-44.26 297.39,-42.14 299.02,-40.02 300.93,-37.88 303.12,-35.74 305.57,-33.6 308.27,-31.46 311.23,-29.33 314.44,-27.22 317.88,-25.14 321.54,-23.08 325.43,-21.07 329.53,-19.1 333.82,-17.18 338.31,-15.32 342.98,-13.53 347.82,-11.82 352.83,-10.19 357.98,-8.65 363.28,-7.22 368.7,-5.89 374.24,-4.68 379.89,-3.59 385.64,-2.63 391.47,-1.81 397.36,-1.13 403.32,-0.59 409.32,-0.21 415.35,0.02 421.39,0.09 427.44,-0 433.48,-0.26 439.48,-0.68 445.45,-1.26 451.36,-2.02 457.2,-2.93 462.95,-4.01 468.59,-5.25 474.12,-6.64 479.51,-8.18 484.74,-9.86 489.81,-11.69 494.7,-13.64 499.39,-15.72 503.86,-17.92 508.11,-20.23 512.11,-22.63 515.86,-25.12 519.33,-27.68 522.52,-30.32 525.42,-33.01 528,-35.74 530.27,-38.51"/>
<text text-anchor="middle" x="412.52" y="-44.89" font-family="sans-serif" font-size="16.00">GestionClientes</text>
</g>
<!-- GestionAlquileres&#45;&gt;GestionClientes -->
<g id="edge2" class="edge">
<title>GestionAlquileres&#45;&gt;GestionClientes</title>
<path fill="none" stroke="black" stroke-width="2" d="M278.12,-153.05C277.81,-140.18 279.71,-126.46 286.52,-115.38 296.22,-99.62 311.04,-87.46 327.17,-78.13"/>
<text text-anchor="middle" x="362.02" y="-118.78" font-family="sans-serif" font-size="12.00"> &#160;&#160;&#160;&#160;&#160;&#160;&#160;&#160;&#160;&#160;&#160;&#160;&#160;&#160;&#160;&#160;&#160;&#160;&#160;&#160;&#160;&#160;&#160;&#160;&#160;&#160;&#160;&#160;&#160;&#160;&#160;&#160;&#160;&#160;&#160;&#160;&#160;&#160;&#160;</text>
<polygon fill="white" stroke="transparent" points="320.17,-69.13 320.17,-86.13 334.17,-86.13 334.17,-69.13 320.17,-69.13"/>
<text text-anchor="start" x="322.17" y="-74.53" font-family="sans-serif" font-size="12.00">D</text>
<polygon fill="white" stroke="transparent" points="271.12,-144.05 271.12,-161.05 285.12,-161.05 285.12,-144.05 271.12,-144.05"/>
<text text-anchor="start" x="273.12" y="-149.45" font-family="sans-serif" font-size="12.00">U</text>
</g>
<!-- GestionClientes&#45;&gt;GestionAlquileres -->
<g id="edge3" class="edge">
<title>GestionClientes&#45;&gt;GestionAlquileres</title>
<path fill="none" stroke="black" stroke-width="2" d="M439.5,-92.84C443.63,-104.95 444.52,-117.71 437.52,-128.38 425.92,-146.05 408.45,-159.01 389.44,-168.5"/>
<text text-anchor="middle" x="518.02" y="-118.78" font-family="sans-serif" font-size="12.00"> &#160;&#160;&#160;&#160;&#160;&#160;&#160;&#160;&#160;&#160;&#160;&#160;&#160;&#160;&#160;&#160;&#160;&#160;&#160;&#160;&#160;&#160;&#160;&#160;&#160;&#160;&#160;&#160;&#160;&#160;&#160;&#160;&#160;&#160;&#160;&#160;&#160;&#160;&#160;</text>
<polygon fill="white" stroke="transparent" points="382.44,-159.5 382.44,-176.5 396.44,-176.5 396.44,-159.5 382.44,-159.5"/>
<text text-anchor="start" x="384.44" y="-164.9" font-family="sans-serif" font-size="12.00">D</text>
<polygon fill="white" stroke="transparent" points="415.5,-82.84 415.5,-101.84 431.5,-101.84 431.5,-82.84 415.5,-82.84"/>
<polyline fill="none" stroke="black" points="431.5,-82.84 431.5,-101.84 "/>
<text text-anchor="start" x="418.5" y="-89.24" font-family="sans-serif" font-size="12.00">U</text>
<polygon fill="white" stroke="transparent" points="431.5,-82.84 431.5,-101.84 464.5,-101.84 464.5,-82.84 431.5,-82.84"/>
<polygon fill="none" stroke="black" points="431.5,-82.84 431.5,-101.84 464.5,-101.84 464.5,-82.84 431.5,-82.84"/>
<text text-anchor="start" x="434.5" y="-89.24" font-family="sans-serif" font-size="12.00">OHS</text>
</g>
<!-- GestionVehiculos -->
<g id="node4" class="node">
<title>GestionVehiculos</title>
<polygon fill="none" stroke="black" stroke-width="2" points="369.92,-308.05 376.43,-309.89 382.66,-311.81 388.59,-313.81 394.2,-315.87 399.46,-317.99 404.35,-320.15 408.85,-322.37 412.94,-324.61 416.6,-326.89 419.82,-329.18 422.58,-331.49 424.88,-333.8 426.71,-336.11 428.06,-338.42 428.93,-340.71 429.31,-342.98 429.21,-345.23 428.62,-347.45 427.57,-349.62 426.04,-351.76 424.06,-353.86 421.64,-355.9 418.78,-357.89 415.51,-359.82 411.84,-361.7 407.79,-363.51 403.38,-365.25 398.64,-366.93 393.58,-368.53 388.22,-370.06 382.6,-371.52 376.74,-372.89 370.66,-374.19 364.39,-375.41 357.96,-376.55 351.38,-377.61 344.69,-378.58 337.91,-379.47 331.06,-380.28 324.17,-380.99 317.26,-381.62 310.35,-382.16 303.47,-382.61 296.63,-382.97 289.85,-383.23 283.15,-383.41 276.54,-383.49 270.05,-383.47 263.68,-383.36 257.45,-383.15 251.36,-382.85 245.44,-382.45 239.68,-381.94 234.1,-381.34 228.7,-380.64 223.49,-379.85 218.48,-378.95 213.66,-377.95 209.05,-376.85 204.64,-375.66 200.44,-374.36 196.44,-372.97 192.66,-371.49 189.09,-369.92 185.74,-368.25 182.59,-366.5 179.67,-364.66 176.97,-362.75 174.48,-360.75 172.22,-358.68 170.18,-356.55 168.37,-354.35 166.79,-352.1 165.44,-349.79 164.33,-347.44 163.45,-345.05 162.83,-342.63 162.45,-340.19 162.33,-337.73 162.47,-335.26 162.88,-332.8 163.56,-330.34 164.51,-327.89 165.74,-325.48 167.26,-323.09 169.07,-320.75 171.18,-318.46 173.58,-316.23 176.29,-314.07 179.3,-311.98 182.62,-309.98 186.24,-308.06 190.17,-306.25 194.4,-304.55 198.94,-302.96 203.76,-301.48 208.88,-300.14 214.28,-298.92 219.95,-297.84 225.88,-296.89 232.07,-296.09 238.48,-295.44 245.12,-294.93 251.97,-294.57 258.99,-294.36 266.18,-294.3 273.51,-294.4 280.96,-294.64 288.51,-295.03 296.13,-295.57 303.78,-296.25 311.46,-297.06 319.12,-298.02 326.74,-299.1 334.28,-300.31 341.73,-301.65 349.05,-303.09 356.2,-304.65 363.17,-306.3 369.92,-308.05"/>
<text text-anchor="middle" x="285.52" y="-337.64" font-family="sans-serif" font-size="16.00">GestionVehiculos</text>
</g>
<!-- GestionVehiculos&#45;&gt;GestionAlquileres -->
<g id="edge4" class="edge">
<title>GestionVehiculos&#45;&gt;GestionAlquileres</title>
<path fill="none" stroke="black" stroke-width="2" d="M285.52,-294.82C285.52,-278.65 285.52,-260.42 285.52,-244.07"/>
<text text-anchor="middle" x="327.52" y="-265.54" font-family="sans-serif" font-size="12.00">Shared Kernel</text>
</g>
<!-- Seguridad -->
<g id="node5" class="node">
<title>Seguridad</title>
<polygon fill="none" stroke="black" stroke-width="2" points="449.79,-347.8 448.84,-344.97 448.15,-342.15 447.71,-339.34 447.53,-336.55 447.62,-333.8 447.97,-331.09 448.58,-328.43 449.46,-325.84 450.6,-323.32 452,-320.89 453.66,-318.54 455.58,-316.3 457.74,-314.16 460.15,-312.13 462.79,-310.22 465.66,-308.43 468.75,-306.76 472.06,-305.23 475.56,-303.83 479.26,-302.56 483.14,-301.43 487.18,-300.43 491.38,-299.57 495.73,-298.84 500.2,-298.25 504.78,-297.79 509.47,-297.46 514.24,-297.25 519.08,-297.17 523.98,-297.21 528.92,-297.36 533.88,-297.62 538.85,-297.99 543.81,-298.47 548.75,-299.04 553.66,-299.7 558.51,-300.45 563.29,-301.29 567.99,-302.2 572.6,-303.19 577.1,-304.25 581.48,-305.37 585.72,-306.56 589.82,-307.81 593.77,-309.11 597.54,-310.47 601.14,-311.87 604.55,-313.32 607.76,-314.81 610.77,-316.35 613.57,-317.92 616.16,-319.54 618.52,-321.19 620.66,-322.88 622.56,-324.6 624.23,-326.35 625.67,-328.14 626.86,-329.95 627.81,-331.8 628.53,-333.67 629,-335.57 629.23,-337.5 629.22,-339.45 628.98,-341.42 628.5,-343.42 627.79,-345.43 626.85,-347.45 625.68,-349.49 624.3,-351.54 622.7,-353.59 620.89,-355.64 618.88,-357.69 616.66,-359.74 614.26,-361.77 611.67,-363.78 608.9,-365.76 605.95,-367.72 602.85,-369.63 599.59,-371.5 596.17,-373.33 592.62,-375.09 588.94,-376.78 585.13,-378.41 581.21,-379.95 577.18,-381.4 573.06,-382.76 568.85,-384.01 564.56,-385.15 560.2,-386.17 555.79,-387.07 551.33,-387.84 546.83,-388.47 542.3,-388.96 537.76,-389.31 533.22,-389.5 528.67,-389.53 524.15,-389.41 519.65,-389.13 515.19,-388.69 510.78,-388.08 506.43,-387.31 502.15,-386.38 497.96,-385.29 493.86,-384.04 489.87,-382.64 485.99,-381.09 482.25,-379.4 478.64,-377.57 475.18,-375.6 471.88,-373.51 468.76,-371.31 465.81,-368.99 463.05,-366.58 460.5,-364.08 458.15,-361.5 456.01,-358.85 454.1,-356.14 452.43,-353.39 450.99,-350.61 449.79,-347.8"/>
<text text-anchor="middle" x="539.52" y="-337.64" font-family="sans-serif" font-size="16.00">Seguridad</text>
</g>
</g>
</svg>
